<svg xmlns="http://www.w3.org/2000/svg" xmlns:xlink="http://www.w3.org/1999/xlink" width="1938" height="816" viewBox="0 0 1938 816">
  <defs>
    <clipPath id="clip-path">
      <rect id="Rectangle_1555" data-name="Rectangle 1555" width="1938" height="816" transform="translate(0 901)" fill="none" stroke="#707070" stroke-width="1"/>
    </clipPath>
  </defs>
  <g id="Group_618" data-name="Group 618" transform="translate(0 -1906)">
    <g id="Mask_Group_10" data-name="Mask Group 10" transform="translate(0 1005)" clip-path="url(#clip-path)">
      <path id="Path_312" data-name="Path 312" d="M-306-2971.278s251.272-106.453,789.376,35.484,92.284,416.938,335.341,532.261,443.221-33.71,518.608-166.775,6.735-329.686,56.94-400.97,105.531-104.678,273.2-95.807,0,894.2,0,894.2H-306Z" transform="translate(249.03 4005.041)" fill="#6a6a6a"/>
      <path id="Path_313" data-name="Path 313" d="M-306-2966.081s271.071-112.182,851.576,37.395,99.555,439.38,361.764,560.909,478.146-35.523,559.472-175.752c66.931-115.406,22.186-273.188,29.728-364.643,1.613-19.559,5.652-36.137,13.74-48.56,45.7-70.184,131.806-119.661,312.688-110.313s0,942.329,0,942.329H-306Z" transform="translate(143 3994.87)"/>
    </g>
    <g id="Group_528" data-name="Group 528" transform="translate(861.607 2031.279)">
      <g id="mn" transform="translate(407.491 -112.586)">
        <path id="Path_472" data-name="Path 472" d="M740.86,556.22c.022.022.044.058.073.095v.036C740.9,556.293,740.875,556.249,740.86,556.22Z" transform="translate(-571.9 -68.127)" fill="#a99fa5"/>
        <path id="Path_473" data-name="Path 473" d="M774.816,473.853c-1.963,11.823-4.59,19.493-7.524,24.237-10.728,17.3-25.558-4.5-26.908-6.459l-1.46-164.2-.095-10.6s1.839,3.9,4.693,10.6c1.1,2.583,2.357,5.583,3.715,8.947,7.276,17.99,17.574,46.211,23.733,75.14C775.6,433.233,777.889,455.353,774.816,473.853Z" transform="translate(-571.351 -3.443)" fill="#a99fa5"/>
        <path id="Path_474" data-name="Path 474" d="M771.189,579.377c-2.846,21.857-10.436,53.691-7.466,77.57.27,2.153.416,4.284.474,6.371.066,2.065.036,4.087-.058,6.072-.051,1.255-.124,2.489-.226,3.707-.161,2.051-.372,4.043-.6,5.984-1.591,13.771-3.97,24.711,4.474,30.593,3.912,2.729,3.415,4.62.766,5.751a.007.007,0,0,1-.007.007,19.957,19.957,0,0,1-6.108,1.2c-.292.022-.591.036-.9.051-7.094.321-16.041-1.153-17.771-4.145-3.5-6.057.5-13.691,2-30.819.635-7.261-.861-17.7-2.175-24.952-.9-4.926-1.708-8.378-1.708-8.378s-2.6-6.393-11.268-39.854-10.458-67.973-8.232-90.838-16.617-66.667-16.617-66.667l-13-39.373-7.772-67,37.862-13.319,1.518.007,4.6.007,1.919.007,1.8,8.94,15.9,79.249,11.684,58.223s3.291,23.339,7.108,41.745S774.043,557.512,771.189,579.377Z" transform="translate(-556.806 -7.364)" fill="#a99fa5"/>
        <path id="Path_475" data-name="Path 475" d="M627.766,490.26s-14.465,32.9-31.688,8.488a62.926,62.926,0,0,1-5.32-9.3c-1.416-2.956-2.839-6.335-4.262-10.188-4.8-12.976-7.042-28.769-7.626-45.43-2-56.457,14.9-122.825,14.9-122.825l3.722,19.639Z" transform="translate(-528.085 -1.868)" fill="#a99fa5"/>
        <path id="Path_476" data-name="Path 476" d="M714.868,486.433s-12.666,8.455-37.123-74.25" transform="translate(-554.846 -29.207)" fill="#a99fa5"/>
        <path id="Path_477" data-name="Path 477" d="M639.562,448.744s-9.838,50.721-7.641,73.571.649,57.384-7.407,90.889c-3.8,15.807-7.152,28.907-9.626,38.329-2.766,10.546-4.444,16.486-4.444,16.486s-1.058,2.248,0,14.428c1.481,17.114,6.6,19.865,3.321,25.944a5.055,5.055,0,0,1-1.562,1.635c-3.569,2.532-11.341,3.758-15.829,3.021a7.958,7.958,0,0,1-1.97-.547c-1.766-.788-2.116-2.219.226-4.408a16.037,16.037,0,0,1,1.4-1.16c7.546-5.619,6.021-13.45,4.605-24.543a90.17,90.17,0,0,1-.62-22.529c1.759-15.5-3.459-33.505-8.1-50.21-2.518-9.049-4.868-17.712-5.846-25.39-2.781-21.843-.168-41.453,3.357-59.873a199.868,199.868,0,0,0,3.007-28.725c.233-6.13.161-10.188.161-10.188l.525-11.94,1.423-32.089,4.627-104.587.058-1.284,7.48-1.554,37.132,5.926,2.248,67.521Z" transform="translate(-529.759 -8.088)" fill="#a99fa5"/>
        <path id="Path_478" data-name="Path 478" d="M696.49,76.818,691.316,84.1l-17.274,24.317-.8,1.124s-.015.358-.036,1.014c-.131,4.226-.6,20.807-.409,34.213.109,7.2.4,13.494,1.044,16.464,2.014,9.371,3.912,16.661,4.5,25.791s.591,28.039.591,28.039-23.952,21.347-68.3,19.208c-4.649-.219-8.772-.591-12.421-1.08-31.126-4.123-27.922-16.523-27.922-16.523s.526-9.728.54-17.522c.007-4.007-.2-6.824-.365-10.392-.08-1.912-.153-4.036-.175-6.685-.015-1.686-.022-3.364-.029-5.021-.066-11.421-.226-21.85-2.459-25.74-2.5-4.372-4.175-3.576-9.67-8.2a25.463,25.463,0,0,1-5.707-7.94l-.015-.044c-.613-1.255-.934-2.109-.934-2.109l-.007.036a150.073,150.073,0,0,0-4.62,20.237,60.722,60.722,0,0,1-7.473,22.522s1.46,6.984,2.7,18.376v.007c.467,4.35.9,9.334,1.219,14.822.679,12.071-.825,28.586.584,40.2,2.08,17.128,7.072,29.717,8.539,31.119,4.094,3.919,6.138,10.144,5.517,17.88s1.773,10.487,1.773,10.487a10.331,10.331,0,0,1,4.006.54c1.649.7-.606,5.379-.7,5.59,1.6-2.124,6.211-2.3,6.838.19s-2.576,6.313-2.576,6.313c3.554,2.846,1.861,4,1.861,4s-7.028,4.554-15.114,3.029c-1.073-.2-1.934.474-3.029,0-9.422-4.094-19.084-18.2-19.084-18.2a107.754,107.754,0,0,0,.234-24.9,14.222,14.222,0,0,0-1.138-4.087,32.363,32.363,0,0,1-2.146-5.459c-1.876-7.48.168-5.517-4.539-19.865C509,209.2,508.436,182.106,509.859,176.647S511.516,161,511.516,161c0-23.835,4.977-51.94,4.977-51.94l-1.6-13.691s-3.737-14.705,12.093-33.257c4.072-4.773,10.385-7.32,17.61-12.808,15.64-11.9,23.573-20.9,27.579-26.842,3.78-5.619,4.08-8.495,4.08-8.495q-.219-1.73-.46-3.328c-2.956-19.741-8.079-24.653-8.079-24.653L557.493-34.732,585.5-41.49,619.314,6.669l.949.868.992.912s.131.088.387.248a103.344,103.344,0,0,0,24.813,10.487,199.129,199.129,0,0,0,20.091,4.8c6.108.985,11.078,2.2,13.728,4.481a46.961,46.961,0,0,1,9.174,10.64C700.621,56.865,696.49,76.818,696.49,76.818Z" transform="translate(-509.343 93.376)" fill="#a99fa5"/>
        <path id="Path_479" data-name="Path 479" d="M747.413,224.288" transform="translate(-573.67 21.562)" fill="#a99fa5"/>
        <path id="Path_480" data-name="Path 480" d="M641.388-16.236a8.123,8.123,0,0,1-5.492,5.855,23.221,23.221,0,0,1-4.823,1.138c-4.845.719-30.122-2.255-34.149-8.182s-6.083-21.7-6.083-21.7L573.766-51.657c-.441-1.608-4.88-18.682-4.083-28.642.974-12.256,14.074-16.256,28.583-21.025,8.82-2.9,18.265-4.634,26.266.3,7.562,4.66,11.5,2.55,13.946,6.883,4.382,7.79,2.667,13.844,2.667,13.844s2.255,17.224,1.665,18.646.356,16.961,1.757,25.377S642.69-21.215,641.388-16.236Z" transform="translate(-525.621 110.303)" fill="#a99fa5"/>
        <path id="Path_481" data-name="Path 481" d="M640.875-2.3s12.094-4.979,16.985-2.578" transform="translate(-544.883 83.659)" fill="#08090a"/>
        <path id="Path_482" data-name="Path 482" d="M647.09.324c.8.267,4.847.89,10.093-1.423" transform="translate(-546.563 82.462)" fill="#08090a"/>
        <path id="Path_483" data-name="Path 483" d="M572.177,46.14a27.736,27.736,0,0,1-.664,2.751c-7.2,24.8-33.2,32.79-41.993,54.443-4.919,12.129.474,28.856-2.532,44.883-6.59,35.205-11.443,72.265,4.685,149.47a12.12,12.12,0,0,1-.664,7.167,32.362,32.362,0,0,1-2.146-5.459c-1.876-7.48.168-5.517-4.539-19.865-15.326-46.649-15.888-73.746-14.465-79.205s1.657-15.647,1.657-15.647c0-23.835,4.977-51.94,4.977-51.94l-1.6-13.691s-3.737-14.705,12.093-33.257c4.072-4.773,10.385-7.32,17.61-12.808C560.237,61.086,568.17,52.081,572.177,46.14Z" transform="translate(-509.343 69.698)" fill="#fff" opacity="0.2"/>
        <path id="Path_484" data-name="Path 484" d="M668.761,224.871l.606.022S669.555,224.751,668.761,224.871Z" transform="translate(-552.418 21.418)" fill="#040405"/>
        <path id="Path_485" data-name="Path 485" d="M619.191,177.244c-8.067,3.08-36.283,18.732-50.511-16.363-7.456-18.383-8.6-7.619-8,6.8a25.305,25.305,0,0,1-2.917,5.528c-6.638,9.483-15.41,50.512-11.383,60.357,2.07,5.058,3.956,9.2,5.428,12.678-1.238-11.4-2.7-18.376-2.7-18.376a60.714,60.714,0,0,0,7.47-22.524,151.281,151.281,0,0,1,4.617-20.24l.007-.036c.185-.811.349-1.608.512-2.39.142,1.579.285,3.088.427,4.5l.014.042a25.517,25.517,0,0,0,5.706,7.94c5.492,4.617,7.172,3.828,9.668,8.2,2.234,3.891,2.4,14.321,2.462,25.739.155-.143-.744,17.516.547,24.686-.1,7.2-.519,14.933-.519,14.933s-3.2,12.4,27.924,16.527c-3.785-6.183-9.725-16.385-12.18-23.285-3.735-10.494,30.414-9.427,7.648-11.027a38.732,38.732,0,0,1-13.031-3.121c4.418-6.352,9.352-14.8,13.554-21.342-.024-.472-.036-.949-.02-1.433.168-5.021.486-10.4,2.572-15.039a19.5,19.5,0,0,1,4.231-5.935l-7.184-.263s14.229-17.074,20.631-18.262c6.365-1.174,5.749-4.415,5.749-4.415S627.251,174.156,619.191,177.244Z" transform="translate(-519.077 41.324)" fill="#040405" opacity="0.15"/>
        <path id="Path_486" data-name="Path 486" d="M643.257,18.721c-2.532,2.924-6.727,5.274-13.849,6.1-9.045,1.055-17.854-.718-26.939-8.253-4.957-4.642-13.138-20.56-13.138-20.56l8.2-.4c1.011,4.859,2.59,10.771,4.731,13.915,4.026,5.927,29.3,8.9,34.149,8.182a25.2,25.2,0,0,0,4.517-1.017l1.942,1.786S643,18.565,643.257,18.721Z" transform="translate(-530.956 83.35)" fill="#040405" opacity="0.15"/>
        <path id="Path_487" data-name="Path 487" d="M719.4,200.775c-4.176-5.442-10.9-13.083-16.782-14.676-3.621-.982-13.126-1.587-17.139-3.892a33.019,33.019,0,0,1-3.166-2.027,1.251,1.251,0,0,1,.954-2.248c3.393.655,8.771.882,16.242-1.21,13.965-3.912,20.183-10.941,20.183-10.941l.114.782C719.675,170.788,719.206,187.365,719.4,200.775Z" transform="translate(-555.938 37.371)" fill="#040405" opacity="0.15"/>
        <path id="Path_488" data-name="Path 488" d="M591.082-62.876c-2.134,1.3,0,18.447,0,18.447h-2.49s-2.49-9.376-6.936-9.223-10.021,2.665-10.021,2.665l-3.5-13.006s-5.211-12.654-3.61-18.7,12.954-23.6,24.87-23.952,18.054-9.906,29.672-4.037,19.73,1.207,22.529,16.35c2.925,15.826-.83,13.8-.83,13.8s-.328-.739-6.89-3.2c-21.8-8.182-19.948-.712-28.079.712s-12.756,3.735-12.934,9.96A32.1,32.1,0,0,1,591.082-62.876Z" transform="translate(-524.17 112.586)" fill="#08090a"/>
        <path id="Path_489" data-name="Path 489" d="M586.448-30.178s-6.135-4-9.248-2.223-3.735,6.225-1.423,9.871,4.447,7.648,9.515,10.849,6.848-1.334,6.848-1.334" transform="translate(-526.917 91.043)" fill="#a99fa5"/>
        <path id="Path_490" data-name="Path 490" d="M645.462-13.594a8.123,8.123,0,0,1-5.492,5.855,5.044,5.044,0,0,1-1.928-2.184c-2.454-5.968,8.366-18.909,5.563-21.933s-10.121-2.372-10.121-2.372,10.434-6.165,6.835-9.9-1.219,3.142-6.138-23.537c-1.551-8.411-9.945-4.683-24.174-3.794s-15.091,28.4-15.091,28.4S585.4-58.178,584.87-58.584s.177-35.165,0-35.7c-.128-.377,35.756.676,57.682,2.781,4.382,7.79,2.667,13.844,2.667,13.844s2.255,17.224,1.665,18.646.356,16.961,1.757,25.377S646.764-18.573,645.462-13.594Z" transform="translate(-529.696 107.661)" fill="#040405" opacity="0.15"/>
        <path id="Path_491" data-name="Path 491" d="M603.058-77.277S590.49-37.912,607.09-18.7,641.2-3.123,641.2-3.123s-6.279,5.052-17.75,4.7S602.793.258,599.5-7.034s-2-17.047-2-17.047l.342-10.807s-7.292-13.339-8.537-25.967S603.058-77.277,603.058-77.277Z" transform="translate(-530.929 103.045)" fill="#040405" opacity="0.15"/>
        <path id="Path_492" data-name="Path 492" d="M584.435,312.219a.489.489,0,0,1,.608-.45c4.962,1.228,40.831,9.706,70.563,5.876,32.015-4.124,39.95-11,39.95-11s1.906,5.453,2.855,5.334.118,4.455.355,5.666,2.253,2.99,2.253,2.99,6.581,19.09,10.316,22.469.733,17.252,6.68,23.477,14.663,33.188,17.687,35.625-.356,8.484,2.49,12.93c1.962,3.067-1.067,3.036-3.136,2.721a.691.691,0,0,0-.754.928,2.421,2.421,0,0,1-.735,2.754c-2.134,2.134-5.157,10.835-54.454,11.948,0,0-18.467,8.031-24.87,6.964l-2.351-7.351-.494,8.655s-31.481,10.849-42.39,5.514-12.924-4.031-21.224-7-16.6,1.423-16.6,1.423-2.253-20.75,5.454-46.6c2.608-8.747-.8-19.336.355-31.9,1.3-14.1,4.232-26.806,5.929-36.95A133.471,133.471,0,0,0,584.435,312.219Z" transform="translate(-525.97 -0.691)" fill="#060709"/>
        <path id="Path_493" data-name="Path 493" d="M730.11,159.284c0-.015.007-.029.007-.044l-.007.095Z" transform="translate(-568.995 39.138)" fill="#a99fa5"/>
        <path id="Path_494" data-name="Path 494" d="M791.97,295.818s-6,16.012-14.165,22.237c-.949.73-1.949.277-2.934.73-7.488,3.423-15.406.686-15.406.686s-1.919-.715.854-4.328c0,0-4.029-2.948-4.014-5.517s4.525-3.5,6.59-1.817c-.146-.182-3.459-4.189-2.022-5.262a10.263,10.263,0,0,1,3.758-1.482s1.664-3.248-.788-10.611-1.963-13.9,1.065-18.676c1.087-1.715,2.919-15.136.832-32.264-1.416-11.611-6.831-27.28-9.064-39.168-1.007-5.4-1.781-10.341-2.372-14.676v-.007c-1.525-11.363-1.788-18.486-1.788-18.486A60.784,60.784,0,0,1,739.87,147.1a122.736,122.736,0,0,0-6.174-12.932c-1.679-3.116-2.992-5.335-3.16-5.612l-.015-.036s-.117.89-.4,2.233l5.525-59.2L737.3,53.81a57.985,57.985,0,0,1,11.8,11.049c7.969,10.064,7.911,18.347,7.911,18.347l1.73,13.676s11.567,26.09,17.282,49.225c0,0,2.671,9.845,5.357,14.8s8.641,31.4,4.948,80.358c-1.138,15.063.372,12.669.35,20.376-.007,3.824-1.387,6.254-.9,10.057A108.082,108.082,0,0,0,791.97,295.818Z" transform="translate(-568.998 67.625)" fill="#a99fa5"/>
        <line id="Line_36" data-name="Line 36" x2="2.609" y2="28.813" transform="translate(64.659 431.993)" fill="none"/>
        <path id="Path_496" data-name="Path 496" d="M772.573,288.22s-6,16.012-14.165,22.237c-.949.73-1.949.277-2.934.73-7.488,3.423-15.406.686-15.406.686s-1.919-.715.854-4.328c0,0,11.64,4.678,17.7-1.27s8.568-18,7.108-19.821-4.379-21.164-5.474-32.841,1.46-52.181,0-74.053c-1.284-19.3-21.281-50.816-28.688-77.308a79.064,79.064,0,0,1-2.219-10.29c-1.518-10.757-6.466-20.069-13.107-28.01C696.52,40.366,661.913,28.872,658.33,27.5a22.585,22.585,0,0,1,2.189-1.81l.993.912s.131.088.387.248a103.344,103.344,0,0,0,24.813,10.487,199.122,199.122,0,0,0,20.091,4.8c6.108.985,11.078,2.2,13.727,4.481a46.961,46.961,0,0,1,9.174,10.64c7.969,10.064,7.911,18.347,7.911,18.347l1.73,13.676s11.567,26.09,17.282,49.225c0,0,2.671,9.845,5.357,14.8s8.641,31.4,4.948,80.358c-1.138,15.063.372,12.669.35,20.376-.007,3.824-1.387,6.254-.9,10.057A108.08,108.08,0,0,0,772.573,288.22Z" transform="translate(-549.6 75.223)" fill="#040405" opacity="0.15"/>
        <path id="Path_497" data-name="Path 497" d="M793.233,819.311a12.775,12.775,0,0,1-.635,1.9,3.677,3.677,0,0,1-1.27,1.737l-.015.015a2.425,2.425,0,0,1-2.583-.153,3.848,3.848,0,0,1-1.635-2.554,11.423,11.423,0,0,1-.314-2.087c.022.569.029,1.35.036,2.16.007.978-.007,2.014-.058,2.8-.139,2.065-3.255,1.73-3.861,1.46-.868-.394-1.409-1.693-1.744-2.926a17.322,17.322,0,0,1-.445-2.5s-.022-.058-.051-.161c-.226-.679-1.095-3.087-.9.051.022.336.051.744.1,1.219.058.584.095,1.109.11,1.591.124,4.153-1.27,4.912-2.788,4.912-1.679,0-3.226-2.2-3.934-4.109-.007-.007-.007-.007-.007-.015-.7-1.9-1.4-5.233-1.263-.474a5.037,5.037,0,0,1-.015.577c-.255,4.291-4.9,5.51-7.729,3.226-1.693-1.357-1.817-2.562-1.605-3.342l-.416.788a3.315,3.315,0,0,0-.153.372c-.693,1.992-1.547,3.065-2.554,3.525H759.5c-1.452.657-3.211.058-5.254-.861-2.781-1.255-1.693-4.291-1.117-5.51a2.941,2.941,0,0,0,.27-1.255v-4.97a2.961,2.961,0,0,1,.263-1.211c7.488-16.8,6.962-37.818,6.918-39.183v-.146l.088-4.583.044-2.226a3.567,3.567,0,0,1,.051-.489c.146-.832.657-3.766,1.051-7.75a89.4,89.4,0,0,0,.314-15.012c-.635-8.488-5.028-23.456-7.152-30.323a2.692,2.692,0,0,1,2.284-3.627h22.872a2.605,2.605,0,0,1,2.423,2.861l-1.284,30.294-.686,14a3.079,3.079,0,0,0,.08.861l1.584,6.663c.066.277.124.555.168.832a16.031,16.031,0,0,1-.058,6.072c-.088.467-.2.927-.336,1.379l-.036.131a3.14,3.14,0,0,0,.044,1.868c.036.1.073.212.1.328,1.255,3.985,3.087,14.253,3.335,15.625a2.3,2.3,0,0,0,.066.307l2.321,8.035c.015.037.022.051.022.051l3.78,13.071a2.88,2.88,0,0,0,.467.934A6.688,6.688,0,0,1,793.233,819.311Z" transform="translate(-575.026 -109.724)" fill="#a99fa5"/>
        <path id="Path_498" data-name="Path 498" d="M628.533,826.8c-.007.007-.007.007-.015.007a17.7,17.7,0,0,1-2.036,1.022.74.74,0,0,1-.109.051,5.763,5.763,0,0,1-1.9.467c-1.511.073-2.81-.788-3.919-3.335a2.859,2.859,0,0,1-.117-.263,2.439,2.439,0,0,0-.182-.365l-.445-.752a2.446,2.446,0,0,1,.044,1.233,4.624,4.624,0,0,1-1.474,2.343c-2.846,2.729-7.918,1.686-8.086-3.24v-.007c-.146-4.415-.562-2.08-1.065-.08-.058.233-.117.467-.182.686-.547,1.89-1.825,4.131-3.379,4.554a2.97,2.97,0,0,1-.35.066,2.437,2.437,0,0,1-1.628-.336c-.963-.635-1.635-2.306-1.5-6.159v-.168c.19-5.539-.927-.9-.927-.9s-.007.2-.022.518c-.095,1.27-.452,4.5-1.846,5.291a4.59,4.59,0,0,1-2.109.336c-.036,0-.073-.007-.109-.007a.9.9,0,0,1-.146-.015,1.708,1.708,0,0,1-1.642-1.482c-.182-1.416-.292-3.664-.336-4.984-.015,1.438-.248,3.9-1.679,4.839a2.915,2.915,0,0,1-2.014.6.116.116,0,0,0-.029-.007c-1.065-.182-1.949-1.35-2.744-3.81a7.187,7.187,0,0,1,.752-6.138,3,3,0,0,0,.416-1.007L594.59,793.3c.022-.109.036-.212.051-.321.161-1.481,1.43-12.866,2.452-16.829a3.357,3.357,0,0,0-.073-1.934l-.051-.131a17.1,17.1,0,0,1-.752-8.56l1.175-7.043a3.633,3.633,0,0,0,.022-.89l-1.591-14.435-3.248-31.25a3.1,3.1,0,0,1,.233-1.562,2.478,2.478,0,0,1,2.036-1.62l6.174-.547,16.99-1.5c1.686-.146,2.985,1.664,2.547,3.554-1.715,7.3-5.2,23.193-5.3,32.031a86.073,86.073,0,0,0,.525,9.962A112.514,112.514,0,0,0,618.1,765.71a3.01,3.01,0,0,1,.08.5l.577,7.035c0,.058.007.1.007.161.044,1.408.861,23.222,9.524,39.942a3.231,3.231,0,0,1,.336,1.233l.321,5.145a3.066,3.066,0,0,0,.358,1.277C629.956,822.219,631.247,825.247,628.533,826.8Z" transform="translate(-530.654 -108.778)" fill="#a99fa5"/>
        <path id="Path_499" data-name="Path 499" d="M629.685,863.39c-.007.007-.007.007-.015.007a6.367,6.367,0,0,1-2.036,1.022.324.324,0,0,1-.117.044,14.109,14.109,0,0,1-1.9.474.027.027,0,0,1-.022.007,60.413,60.413,0,0,1-18.785.766c-.7-.088-1.357-.175-1.978-.27-2.9-.453-5.014-.971-6.4-1.087-.037,0-.073-.007-.109-.007a.9.9,0,0,1-.146-.015,23.808,23.808,0,0,1-5.671-1.029.115.115,0,0,0-.029-.007L594,855.829l2.81-3.489,1.613-2.014,6.641-8.247,9.188,5.225,3.861,2.2S635.173,859.041,629.685,863.39Z" transform="translate(-531.807 -145.366)" fill="#a99fa5"/>
        <path id="Path_500" data-name="Path 500" d="M792.246,856.239a4.879,4.879,0,0,1-.832,1.117l-.015.015a6.9,6.9,0,0,1-4.2,1.978c-3.678.438-12.334,3.992-27.6,2.379h-.007c-.394-.044-.8-.088-1.2-.139-9.049-1.095-5.576-6.021-.832-10.093a68.1,68.1,0,0,1,8.057-5.78l13.465-8.2,12.312,13.063.628,4.116Z" transform="translate(-575.112 -144.134)" fill="#a99fa5"/>
        <path id="Path_501" data-name="Path 501" d="M793.292,610.515c-2.846,21.857-10.436,53.691-7.466,77.57.27,2.153.416,4.284.474,6.371a16.031,16.031,0,0,1-.058,6.072c-.051,1.255-.124,2.489-.226,3.707,1.255,3.985,3.087,14.253,3.335,15.625a2.288,2.288,0,0,0,.066.307l2.321,8.035a142.327,142.327,0,0,1-6.32-17.982,152.635,152.635,0,0,1-4.787-23.594c-1.62-13.742.35-30.177,2.372-47.678,1.387-12.005,2.8-24.507,3.1-36.979.635-26.543-10.232-44.2-11.254-68.82a88.215,88.215,0,0,1,.307-12c2.919-31.367-8.356-68.426-8.356-68.426l3.89-2.036,7.838-4.109c4.627,21.712,6.918,43.832,3.846,62.332,0,0,3.291,23.339,7.108,41.744S796.145,588.65,793.292,610.515Z" transform="translate(-578.909 -38.502)" fill="#040405" opacity="0.15"/>
        <path id="Path_502" data-name="Path 502" d="M792.6,843.211a3.677,3.677,0,0,1-1.27,1.737l-.015.015a6.9,6.9,0,0,1-4.2,1.978c-3.678.438-12.334,3.992-27.6,2.379H759.5c-1.452.657-3.211.058-5.254-.861-2.781-1.255-1.693-4.291-1.117-5.51a2.941,2.941,0,0,0,.27-1.255v-4.97a2.961,2.961,0,0,1,.263-1.211c7.488-16.8,6.962-37.818,6.918-39.183v-.146l.088-4.583c2.153,4.313,4.372,10.779,3.124,17.566-2.189,11.918-8.269,22.376-6.327,29.922,1.372,5.3,8.145,6.035,14.5,5.663l1.284-.088c2.226-.182,4.35-.467,6.108-.715l.613-.088c.409-.066.8-.131,1.182-.2,2.255-.409,4.116-.934,5.663-1.328.095-.022.19-.044.277-.073,2.2-.547,3.737-.788,4.831.036a1.959,1.959,0,0,1,.234.2A1.911,1.911,0,0,1,792.6,843.211Z" transform="translate(-575.026 -131.727)" fill="#040405" opacity="0.15"/>
        <path id="Path_503" data-name="Path 503" d="M623.864,765.285a5.763,5.763,0,0,1-1.9.467.027.027,0,0,1-.022.007,60.415,60.415,0,0,1-18.785.766,2.97,2.97,0,0,1-.35.066,2.437,2.437,0,0,1-1.627-.336c-2.9-.453-5.014-.971-6.4-1.087-.036,0-.073-.007-.109-.007a.9.9,0,0,1-.146-.015,23.811,23.811,0,0,1-5.67-1.029.115.115,0,0,0-.029-.007c-1.065-.182-1.948-1.35-2.744-3.81a7.187,7.187,0,0,1,.752-6.138,3,3,0,0,0,.416-1.007l4.839-22.456c.022-.11.036-.212.051-.321.161-1.481,1.43-12.866,2.452-16.829a3.356,3.356,0,0,0-.073-1.934l-.051-.131a17.1,17.1,0,0,1-.752-8.56l1.175-7.042a3.631,3.631,0,0,0,.022-.89l-1.591-14.435-3.248-31.25a3.1,3.1,0,0,1,.234-1.562c-2.518-9.049-4.868-17.712-5.846-25.39-2.781-21.843-.168-41.453,3.357-59.873a199.861,199.861,0,0,0,3.007-28.725c-1.416-2.956-2.839-6.335-4.262-10.188-4.8-12.976-7.043-28.769-7.626-45.43L585.71,475s2.766,20.186,5.795,36.629a163.9,163.9,0,0,0,3.912,17.376c1.284,3.992,1.248,8.736.723,14.056-1.109,11.21-4.393,24.981-2.029,39.584,1.759,10.852,3.277,37.052,4.4,62.93,1.1,25.441,1.817,50.568,2,60.478a68.06,68.06,0,0,1-1.489,14.428c-1.919,9.633-5.1,18.7-6.006,25.7a23.865,23.865,0,0,0-.226,4.408,12.252,12.252,0,0,0,.358,2.562,8.574,8.574,0,0,0,.963,2.394,9.937,9.937,0,0,0,4.62,3.992c.307.139.628.27.949.387a27.6,27.6,0,0,0,7.035,1.357c.358.036.708.066,1.065.088a92.508,92.508,0,0,1,9.56.9c.234.044.474.088.7.146a14.1,14.1,0,0,1,4.364,1.635,5.947,5.947,0,0,1,1.452,1.226A.007.007,0,0,1,623.864,765.285Z" transform="translate(-528.146 -46.181)" fill="#040405" opacity="0.15"/>
      </g>
      <g id="woman" transform="translate(132.393 -63.19)">
        <path id="Path_504" data-name="Path 504" d="M340.865,730.774s-9.8,12.677-5.954,29.579,9.8,29.579,11.908,42.063-5.378,21.9-8.451,29.579,2.235,21.128,2.235,21.128h9.673s-1.152-8.259,5.762-26.314,3.649-24.969,2.689-38.03-10.235-27.083,1.612-42.063,5.879-25.93,5.879-25.93Z" transform="translate(-186.872 -161.989)" fill="#434342"/>
        <path id="Path_505" data-name="Path 505" d="M663.571,730.774s9.8,12.677,5.954,29.579-9.8,29.579-11.908,42.063,5.378,21.9,8.451,29.579-2.235,21.128-2.235,21.128h-9.673s1.153-8.259-5.762-26.314-3.65-24.969-2.689-38.03,10.235-27.083-1.612-42.063-5.878-25.93-5.878-25.93Z" transform="translate(-268.661 -161.989)" fill="#434342"/>
        <path id="Path_506" data-name="Path 506" d="M378.508,589.448v26.4s-28.309.146-53.516-.1c-15.063-.153-29.009-.445-35.154-.993-16.42-1.46-45.612-10.217-45.612-10.217s-.949,17.406-7.663,30.1c-6.32,11.961-22.12,25.579-25.127,30.192-6.2,9.517-29.053,46.641-28.688,49.743s6.232,3.977,10.064,16.2c.708,2.255-.832,5.32-1.168,10.29,0,0-13.567,16.968-13.341,22.806s-2.438,6.568-2.438,6.568L173.8,785.647V804.5l-10.947,9.728-6.378,2.029L146.1,819.561s-10.7,0-11.976-3.664a11.546,11.546,0,0,1-1.642-6.108c.044-1.255-.146-3.189-.066-5.328.124-3.664,1.029-7.926,5.262-10.3a4.254,4.254,0,0,0,1.481-1.525c1.168-1.846,1.9-4.955,2.394-8.852,1.525-11.954.817-31.323,3.423-44.6,2.744-13.961,22.923-101.96,49.072-155.192.46-.934.92-1.861,1.387-2.773.292-.584.591-1.16.89-1.737s.591-1.138.89-1.7.6-1.124.9-1.679c.277-.525.562-1.044.847-1.554.328-.591.657-1.182.985-1.759.6-1.051,1.19-2.073,1.8-3.08,1.89-3.182,3.81-6.138,5.751-8.838.3-.409.591-.817.89-1.211.489-.671.985-1.314,1.481-1.941.161-.212.328-.416.489-.62s.336-.409.5-.613.336-.4.5-.6c.5-.6.993-1.175,1.5-1.73.168-.182.328-.365.5-.547q.35-.383.7-.744c.255-.285.525-.562.8-.832.007-.007.007-.015.015-.015.248-.255.5-.5.752-.744s.5-.474.744-.7c.292-.277.591-.547.89-.81.387-.343.781-.671,1.168-.985.153-.131.314-.248.467-.372a.768.768,0,0,1,.08-.066c.234-.182.467-.365.7-.533.248-.19.5-.365.744-.54.168-.117.336-.234.5-.343s.336-.226.511-.336c.131-.088.263-.168.394-.255.606-.372,1.211-.715,1.824-1.029q.405-.208.81-.394a1.452,1.452,0,0,1,.153-.073c.3-.139.6-.27.9-.387.431-.175.868-.336,1.321-.5.321-.117.642-.234.978-.336.3-.1.606-.2.92-.292.117-.036.234-.073.35-.1.328-.095.657-.19.993-.277,28.141-7.415,76.125,10.064,97.289,17.355,5.036,1.73,8.553,2.89,9.933,3,5.386.431,8.495-.759,9.816-1.467a5.1,5.1,0,0,0,.766-.482S374.618,568.773,378.508,589.448Z" transform="translate(-132.393 -113.451)" fill="#a99fa5"/>
        <path id="Path_507" data-name="Path 507" d="M491,182.919c.73-.243,14.414-2.828,30.1,18.792,0,0-9.943-11.312-13.775-11.95,0,0,11.434,9.883,12.437,13.866,0,0-8.758-10.582-13.106-10.7,0,0,20.343,19.553,24.966,37.676s-2.068,38.193-2.068,38.193l-16.542.608-4.136-50.964Z" transform="translate(-229.289 -16.597)" fill="#08090a"/>
        <path id="Path_508" data-name="Path 508" d="M458.284,175.342s-7.3-25.447-26.029-18.757-31.5,10.217-46.282,45.065-5.291,34.483-6.751,56.559S377.4,294.882,367,304.369s6.751,20.8,4.2,28.827-7.577,6.021-7.577,6.021,8.49,10.582,20.9-3.467,40.869-69.331,56.012-65.864,22.624-13.5,22.624-13.5l-5.656-81.008Z" transform="translate(-194.87 -9.238)" fill="#08090a"/>
        <path id="Path_509" data-name="Path 509" d="M394.981,443.211s7.663,2.007,2.007,17.15-14.961,16.968-14.961,16.968,14.049,2.372,22.989-12.407S408.3,428.25,408.3,428.25" transform="translate(-199.844 -82.945)" fill="#08090a"/>
        <path id="Path_510" data-name="Path 510" d="M449.382,486.828s-11.494-3.284-12.224-20.434,2.372-26.09,2.372-26.09-11.605,15.527-4.561,33.023c0,0-6.483.182-6.343-15.143,0,0-4.838,14.91,5.43,20.252,0,0-11.9,3.1-13.724-15.873s5.331-10.765,1.135-47.619,21.347-19.887,21.347-19.887l20.069,65.5Z" transform="translate(-210.112 -72.922)" fill="#08090a"/>
        <path id="Path_511" data-name="Path 511" d="M571.183,292.5c-.861,13.567-3.153,29.8-5.284,42.949-1.314,8.1-2.576,15.027-3.4,19.42-.219,1.182-.409,2.189-.562,2.978-.263,1.343-.409,2.08-.409,2.08s-2.051,23.339-5.211,39.373a68.259,68.259,0,0,1-3.058,11.472c-4.846,11.772-12.027,27.426-13.749,34.3-1.1,4.386-2.036,9.225-2.562,12.144-.306,1.657-.474,2.693-.474,2.693a24.973,24.973,0,0,0-4.787,2.459A72.217,72.217,0,0,0,523.892,468c-.022.015-.037.036-.058.051a148.8,148.8,0,0,0-17.654,17.486,286.329,286.329,0,0,0-18.6,24l-.591.832a121.411,121.411,0,0,0-14.253-.343c-7.137.263-15.318.781-23.879,1.394-.139-.577-.2-.912-.2-.912s-3.488-18.318-10.786-31.338c-3.284-5.853-8.444-9.465-13.166-11.794-5.78-2.839-10.9-3.766-11.129-4.517-.3-.949,2.423-4.4,5.663-8.422,1.423-1.773,2.948-3.649,4.364-5.474,4.62-5.962,19.464-18.369,22.018-28.586,2.022-8.093,1.715-18.53.445-27.637a92.859,92.859,0,0,0-3-14.078c-.1-.328-.2-.664-.314-.985a154.988,154.988,0,0,0-14.771-32.585l-.139-.387-1.949-5.452-1.423-3.97L409,292.051s9.582-15.333,41.825-24.6c.248-.073.5-.139.744-.212l9.736-3.16L446.461,248.5l-2.671-6.32s-.248,10.217-8.517,6.568-8.758-14.355-7.787-20.923-13.136-40.139,9.247-50.356c.963-.438,1.912-.839,2.839-1.2,20.719-8.086,33.658,2.292,39.249,10.443,5.838,8.509,14.917,21.106,15.384,33.994a40.477,40.477,0,0,1-.445,8.006,24.37,24.37,0,0,1-.569,2.671c-.153.54-.263.817-.263.817l12.407,32.6s1.737-.518,4.561-1.3c3.831-1.058,9.67-2.605,15.866-4.007,4.875-1.1,9.969-2.116,14.5-2.744.613-.08,1.211-.161,1.8-.226,5.167-.6,8.9-1.022,11.969-.781a14.688,14.688,0,0,1,2.109.292l.095.022c3.284.7,5.9,2.5,9.13,6.152.036.037.073.08.109.124.584.664,1.182,1.387,1.8,2.175.5.62,1.014,1.284,1.547,1.992a7,7,0,0,1,.81,1.416c.007.007.015.015.015.022C571.643,272.405,571.876,281.586,571.183,292.5Z" transform="translate(-207.132 -14.07)" fill="#a99fa5"/>
        <path id="Path_512" data-name="Path 512" d="M473.657,297.733l-12.893-23.84s-17.333-18.306-20.009-28.037S421.6,226.212,419.9,212.1s-13.866,37.341-12.407,53.458-6.812,38.984,13.379,49.931S473.657,297.733,473.657,297.733Z" transform="translate(-206.594 -23.887)" fill="#08090a"/>
        <path id="Path_513" data-name="Path 513" d="M491.928,188.978a11.265,11.265,0,0,0-3.425.526,16.287,16.287,0,0,0-3.091,1.3,9.6,9.6,0,0,0-1.343.981,7.914,7.914,0,0,1-1.371.889,15.843,15.843,0,0,1-1.579.693,8.555,8.555,0,0,1-1.873.552l-.209-.2a6.183,6.183,0,0,1,.729-1.906A7.4,7.4,0,0,1,481,190.295a8.25,8.25,0,0,1,3.505-1.646,17.362,17.362,0,0,1,1.884-.436,8.894,8.894,0,0,1,.955-.109,8.332,8.332,0,0,1,.955-.044,10.221,10.221,0,0,1,3.7.636Z" transform="translate(-226.057 -18.045)" fill="#08090a"/>
        <path id="Path_514" data-name="Path 514" d="M321.789,729.317s-12.406,16.056-7.541,37.463,12.407,37.463,15.082,53.275-6.811,27.732-10.7,37.463,2.831,26.759,2.831,26.759h12.251s-1.46-10.46,7.3-33.327,4.623-31.625,3.406-48.167-12.962-34.3,2.042-53.275,7.445-32.841,7.445-32.841Z" transform="translate(-181.225 -160.876)" fill="#10100e"/>
        <path id="Path_515" data-name="Path 515" d="M702.733,729.317s12.407,16.056,7.542,37.463-12.407,37.463-15.083,53.275,6.811,27.732,10.7,37.463-2.832,26.759-2.832,26.759H690.813s1.46-10.46-7.3-33.327-4.622-31.625-3.406-48.167,12.963-34.3-2.042-53.275-7.445-32.841-7.445-32.841Z" transform="translate(-277.309 -160.876)" fill="#10100e"/>
        <path id="Path_516" data-name="Path 516" d="M713.381,734.395s-.263.007-.781.015c.161-.5.328-1.051.5-1.649Z" transform="translate(-289.165 -165.224)" fill="#08090a"/>
        <path id="Path_517" data-name="Path 517" d="M317.326,676.436s-9.974,16.542-4.866,33.085l.243,10.46s28.949-9.73,68.115-4.622,34.544,9.487,79.3,9.487S514.615,713.9,548.916,713.9s55.951-.487,55.951-.487l-1.946-11.434s8.758-23.354,4.622-41.112-82.953,11.19-85.386,11.434-144.5-3.406-146.2-2.919S317.326,676.436,317.326,676.436Z" transform="translate(-180.654 -144.242)" fill="#434342"/>
        <path id="Path_518" data-name="Path 518" d="M602.921,734.074l1.949,11.436s-21.653.489-55.954.489-44.029,10.947-88.795,10.947-40.139-4.379-79.3-9.487-68.119,4.62-68.119,4.62l-.241-10.458a36.822,36.822,0,0,1-.708-17.69c.19.9.423,1.817.708,2.729l.241,10.458s28.951-9.728,68.119-4.62,34.541,9.487,79.3,9.487,54.494-10.947,88.795-10.947c30.513,0,51.013-.387,55.173-.474C603.41,732.783,602.921,734.074,602.921,734.074Z" transform="translate(-180.655 -162.838)" fill="#10100e"/>
        <path id="Path_519" data-name="Path 519" d="M315.812,632.486c-3.512,2.5-4.641,7.889-5.128,12.511s-.057,19.7,3.713,23.84,7.42,11.19,39.288,6.811,76.142-4.866,104.361-4.136,72.948,6.219,105.821-4.135c9.593-3.022,24.083-.73,39.165-4.622s15.813-44.548,0-44.761-20.1,1.66-37.95,7.055c-11.867,3.586-23.34,6.992-38.071,8.149-25.763,2.023-51.408-4.135-80.886-3.04-27.415,1.018-70.164,5.794-90.981,4.865C326.775,633.757,319.847,629.61,315.812,632.486Z" transform="translate(-180.523 -134.21)" fill="#eddde7"/>
        <path id="Path_520" data-name="Path 520" d="M679.665,821.5s-2.068,3.649-1.095,19.826,4.379,17.636,3.892,37.585-.8,30.165-.8,30.165h5.062l4.622-45.977s-1.946,20.492-.974,28.917-2.189,30.562-2.189,30.562,1.095,13.5,33.814,9.852L730.57,897.9l-32.3-62.288Z" transform="translate(-279.9 -189.202)" fill="#10100e"/>
        <path id="Path_521" data-name="Path 521" d="M687.1,810.832c-.182,3.642-1.963,5.722-4.488,6.751-5.736,2.35-15.355-.693-18.989-2.978-5.225-3.284-13.012-10.706-13.983-32.476-.5-11.122-1.5-17.515-2.729-21.763a35.354,35.354,0,0,0-3.817-8.488c-.007-.015-.015-.022-.022-.036-2.678-4.868-9.371-4.744-7.787-15.567l8.2-15.318,3.116-5.838.365-.679s-2.978-50.779-10.458-69.024-14.727-15.26-16.917-63.974a15.046,15.046,0,0,1-2.956,3.007c-4.8,4.007-16.683,11.472-43.985,19-39.672,10.94-56.786-2.576-56.786-2.576L528.931,570.7l2.54-5.868L559.2,547.863l2.875,2.722.737.7.2.19,1-.81c7.342-5.919,53.261-42.328,70.907-42.336,1.766,0,3.445.066,5.036.212C659.222,510.235,666.41,522.7,673.6,558.2c.08.387.161.766.241,1.16.241,1.168.5,2.365.759,3.613.117.54.226,1.087.343,1.642.007.036.015.073.022.1.117.569.241,1.153.358,1.744.109.533.219,1.073.328,1.628s.212,1.087.314,1.657q.12.635.241,1.292c.109.591.212,1.2.321,1.817.212,1.255.431,2.569.635,3.956.058.38.109.759.168,1.146a.566.566,0,0,1,.015.109c.036.219.066.438.095.664s.066.445.095.671c.058.453.124.912.182,1.379.029.248.066.5.095.744.058.467.117.934.168,1.408a.57.57,0,0,1,.015.1c.058.46.109.927.161,1.394.066.584.124,1.182.19,1.788.022.182.036.372.058.562q.077.788.153,1.6c.073.825.153,1.664.219,2.525.044.467.08.934.117,1.409.073.92.139,1.868.2,2.839,0,.08.007.161.015.241q.055.854.109,1.73l.066,1.182c.036.62.073,1.255.1,1.9.015.35.036.7.051,1.058,1.219,26.149-.5,56.5,0,87.328.226,13.881.591,27.528,1,39.986q.088,2.551.175,5.036c1.022,29.725,2.233,51.56,2.233,51.56S687.706,798.914,687.1,810.832Z" transform="translate(-236.006 -104.583)" fill="#a99fa5"/>
        <path id="Path_522" data-name="Path 522" d="M567.582,367.343c-2.277,14-4.371,24.477-4.371,24.477S561.16,415.159,558,431.193c-9.232,10.845-21.821,27.316-24.529,39.263-1.554,6.86-1.2,15.5-.1,23.806-7.3,4.481-22.667,16.537-44.109,47.167l-.591.832a121.411,121.411,0,0,0-14.253-.343c-7.137.263-15.318.781-23.879,1.394-.139-.577-.2-.912-.2-.912s-3.488-18.318-10.786-31.338-23.864-14.939-24.295-16.311c-.3-.949,2.423-4.4,5.663-8.422a99.823,99.823,0,0,1,26.258-11.312c23.354-6.386,8.582-41.161.569-50.385a92.861,92.861,0,0,0-3-14.078c-.1-.328-.2-.664-.314-.985l.007.007s-4.379-27.061,14.413-48.955S442.553,313,442.553,313l17.391-8.21s5.933,18.61,23.58,13.136c16.326-5.057,23.04-6.846,28.053-22.522,3.831-1.058,9.67-2.605,15.866-4.007-3.248,5.765-8.933,16.88-8.933,23.791,0,9.67,15.085,26.638,28.4,39.409C548.761,356.374,566.5,364.467,567.582,367.343Z" transform="translate(-208.815 -45.968)" fill="#060709"/>
        <path id="Path_523" data-name="Path 523" d="M710.727,918.764s-4.866-10.1,4.744-14.231,18.123-5.595,22.38.73-4.987-19.1-4.987-19.1-6.811,6.324-15.691,4.379-23.84-4.379-23.84-4.379,5.473,34.909,12.407,34.353S710.727,918.764,710.727,918.764Z" transform="translate(-283.96 -206.675)" fill="#10100e"/>
        <path id="Path_524" data-name="Path 524" d="M727.719,810.173c-4.722-1.35-13.706-3.036-20.391,1.08-9.487,5.838-13.071,8.6-12.771,18.851a27.377,27.377,0,0,1-.54,6.824,35.352,35.352,0,0,0-3.817-8.488,43.89,43.89,0,0,0,2.284-17.428,78.2,78.2,0,0,0-1.9-13.494l3.116-5.838,2.16,21.763s14.654-15.588,31.681-8.305Q727.631,807.688,727.719,810.173Z" transform="translate(-283.113 -181.144)" fill="#10100e"/>
        <path id="Path_525" data-name="Path 525" d="M501.212,229.846s-.985.124-2.474.46c-3.9.876-11.232,3.2-13.217,8.48-2.737,7.3-16.42,12.224-27,10.765,0,0,14.414,10.947,17.515,16.238,1.963,3.35-10.414,2.095-19.661.577.248-.073.5-.139.744-.212l9.736-3.16-14.844-15.574-2.671-6.32s-.248,10.217-8.517,6.568-8.758-14.355-7.787-20.923-13.136-40.139,9.247-50.356c.963-.438,15.494-6.7,16.42-7.055.175,1.241-7.116,7.663-13.822,11.682-9.113,5.46-5.656,30.951.343,40.438,0,0,17.851,16.056,26.608,11.859s6.576-11.348,12.6-10.874,3.08,3.211,10.845,4.306a20.778,20.778,0,0,1,4.036.89C502.278,228.671,501.212,229.846,501.212,229.846Z" transform="translate(-212.681 -12.985)" fill="#040405" opacity="0.15"/>
        <path id="Path_526" data-name="Path 526" d="M490.307,226.522s-8.225.827-7.648,7.3-16.025,9.122-21.407,9.3S444.923,228.079,443.1,221.6s-5.2-25.361,0-32.567,13.775-9.214,18.336-4.288.912,10.582,8.164,14.231,4.151,4.926,4.151,4.926-5.513,3.588-3.76,8.681,3.121-.471,3.121-.471a2.166,2.166,0,0,0,2.463,1.08c1.916-.259,3.831-.609,3.831-.609s4.105,3.087,4.926,4.547-7.024,2.281-7.024,6.295,5.352.639,5.352.639S490.353,219.675,490.307,226.522Z" transform="translate(-215.597 -16.418)" fill="#fff" opacity="0.2"/>
        <path id="Path_527" data-name="Path 527" d="M480.437,238.383S485,230.4,490.974,228.3s10.171,0,10.171,0-4.652-4.561-10.354-3.375a13.113,13.113,0,0,0-2.645,1.6c-.786.523-1.862.586-2.559,1.311C482.5,231.038,480.4,235.787,480.437,238.383Z" transform="translate(-226.435 -27.954)" fill="#08090a"/>
        <path id="Path_528" data-name="Path 528" d="M485.732,235.175c3.334-2.235,6.149-5.581,13.141-5.428s-7.344-2.372-7.344-2.372-10.253,7.3-10.536,10.308S483.516,236.659,485.732,235.175Z" transform="translate(-226.579 -28.668)" fill="#08090a"/>
        <path id="Path_529" data-name="Path 529" d="M443.146,212.914a20.161,20.161,0,0,1,1.946-4.557,22.992,22.992,0,0,1,1.387-2.108,11.668,11.668,0,0,1,.8-.989c.287-.317.55-.659.867-.952s.61-.615.91-.938l.979-.9a5.844,5.844,0,0,1,1.1-.757,5.177,5.177,0,0,1,1.23-.532c.436-.123.872-.233,1.311-.318a11.143,11.143,0,0,1,1.358-.07c.226,0,.45.006.674.027l.679.134a7.024,7.024,0,0,1,1.317.444l.036.363a43.472,43.472,0,0,1-3.872,2.745c-.31.165-.6.379-.909.544s-.652.279-.966.457l-1,.451c-.323.178-.637.374-.953.572s-.6.437-.909.658a9.776,9.776,0,0,0-.88.714,20.945,20.945,0,0,0-1.706,1.553,28.4,28.4,0,0,0-3.066,3.6Z" transform="translate(-216.359 -21.487)" fill="#08090a"/>
        <path id="Path_530" data-name="Path 530" d="M386.285,573.516c-1.613.1-29.09,0-30.593-.723a41.787,41.787,0,0,0-7.276-2.562c-12.246-3.328-24.674-5.955-37.088-8.582-9.064-1.912-18.194-3.839-27.455-3.868s-18.77,1.963-26.353,7.276c-5.9,4.138-10.334,10.027-15.778,14.764s-12.706,8.4-19.7,6.648a14.546,14.546,0,0,1-5.167-2.481c.46-.934.92-1.861,1.387-2.773.292-.584.591-1.16.89-1.737s.591-1.138.89-1.7.6-1.124.9-1.679c.277-.525.562-1.044.847-1.554.328-.591.657-1.182.985-1.759.591-1.051,1.19-2.073,1.8-3.08,1.89-3.182,3.81-6.138,5.751-8.838.3-.409.591-.817.89-1.211.489-.671.985-1.314,1.481-1.941.161-.212.328-.416.489-.62s.336-.409.5-.613.336-.4.5-.6c.5-.6.993-1.175,1.5-1.73.168-.182.328-.365.5-.547q.35-.383.7-.744c.255-.285.525-.562.8-.832.007-.007.007-.015.015-.015.248-.255.5-.5.752-.744s.5-.474.744-.7c.292-.277.591-.547.89-.81.387-.343.781-.671,1.168-.985.153-.131.314-.248.467-.372a.768.768,0,0,1,.08-.066c.234-.182.467-.365.7-.533.248-.19.5-.365.744-.54.168-.117.336-.234.5-.343s.336-.226.511-.336c.131-.088.263-.168.394-.255.606-.372,1.211-.715,1.824-1.029q.405-.208.81-.394a1.452,1.452,0,0,1,.153-.073c.3-.139.6-.27.9-.387.431-.175.868-.336,1.321-.5.321-.117.642-.234.978-.336.3-.1.606-.2.92-.292.117-.036.234-.073.35-.1.328-.095.657-.19.993-.277C281.019,535.53,329,553.009,350.168,560.3c5.036,1.73,8.553,2.89,9.933,3,5.386.431,8.495-.759,9.816-1.467C377.156,565.613,385.432,570,386.285,573.516Z" transform="translate(-155.218 -113.451)" fill="#040405" opacity="0.15"/>
        <path id="Path_531" data-name="Path 531" d="M193.283,853.88a2.853,2.853,0,0,1-1.153,1.007A2.771,2.771,0,0,1,193.283,853.88Z" transform="translate(-148.534 -197.951)" fill="#55325d"/>
        <path id="Path_532" data-name="Path 532" d="M332.312,620.962c-15.063-.153-29.009-.445-35.154-.993-16.42-1.46-45.612-10.217-45.612-10.217s-.949,17.406-7.663,30.1c-5.028,9.524-16.07,20.091-21.887,26.338a34.1,34.1,0,0,0-3.24,3.853C212.749,679.273,191.1,714.42,190.1,719.4a1.28,1.28,0,0,0-.029.387c.139,1.182,1.08,2.043,2.4,3.328,2.138,2.094,5.291,5.313,7.663,12.874.708,2.255.358,4.817-.007,7.006a8.283,8.283,0,0,1-1.16,3.284A44.862,44.862,0,0,0,189,756.062c-.168.219-.336.438-.5.664a58.666,58.666,0,0,0-5.765,9.451v.007a61.774,61.774,0,0,0-3.715,9.6c-2.124,7.2-.686,19.208-.854,24.952a9.211,9.211,0,0,1-.693-.62,61.469,61.469,0,0,1-17.96-41.38,73.272,73.272,0,0,1,.628-11.458c.27-2.051.613-4.094,1-6.13,1.146-5.926,2.737-11.8,4.32-17.625,10.02-36.855,20.507-74.687,43.4-105.259-1.752,12.173-3.2,25.725,3.948,35.738a95.477,95.477,0,0,1,7.94-34.607c-5.1-14.333-3.145-32.3,6.152-44.335s26.455-17.946,40.708-12.633c8.108,3.021,14.632,9.108,20.923,15.048q18.708,17.636,37.4,35.278C328.481,615.153,331.123,617.707,332.312,620.962Z" transform="translate(-139.713 -118.67)" fill="#040405" opacity="0.15"/>
        <path id="Path_533" data-name="Path 533" d="M192.076,855.26c-.051.066-.095.139-.146.219l.022-.168S192,855.3,192.076,855.26Z" transform="translate(-148.48 -198.324)" fill="#10100e"/>
        <path id="Path_534" data-name="Path 534" d="M191.005,840.565c.011,18.773,2.706,38.406,2.129,39.379s-2.159,2.8-4.531,2.068c-1.014-.312-1.728-8.326-3.436-16.451-2.284-10.871-5.473-22.076-5.473-22.076s-6.386-4.561-5.291,29.374c.482,14.932,4.342,22.948,2.554,28.462-2.275,7.017-10.4,9.305-10.4,9.305s-18.792,5.838-23.536.912S137,892.381,137,892.381s31.042-1.108,34.908-20.8c.838-4.266-1.4-18.77,1.034-27,6.086-20.6,19.948-29.5,19.948-29.5S191,831.859,191.005,840.565Z" transform="translate(-133.637 -187.468)" fill="#10100e"/>
        <path id="Path_535" data-name="Path 535" d="M368.468,387.794c-2.722,4.532-6.152,9.743-10.495,15.683-7.313,10.02-21.741,28.681-32.111,35.76-18.493,12.618-43.022,23.821-55.282,29.922a45.358,45.358,0,0,0-8.21,5.473s-2.832,4.379-.912,8.94c1.175,2.788,1.182,10.071.6,16.5a48.079,48.079,0,0,1-1.693,9.867c-1.825,5.2,0,6.2,0,6.2s.27,6.656-6.386,5.284-3.649-17.055-3.649-17.055-1.547-3.649-7.663,1.73-31.929,43.576-37.307,34.563c0,0-1.825-.073,1.365-5.182,2.459-3.948,11.013-16.917,14.786-22.631-3.722,5.525-12.21,17.924-17.1,23.208-6.386,6.9-11.005,4.014-10.765.788.241-3.175,14.151-16.953,14.589-17.384-.307.248-9.721,7.933-13.428,10.327-3.773,2.438-6.568-.73-5.473-3.16,1.08-2.394,14.355-14.866,14.771-15.26-.328.2-9.3,5.641-12.283,5.1-.737-.139-1.131-.453-1.255-.883-.387-1.321,1.773-3.737,3.934-5.255,1.124-.8,3.715-2.649,6.751-4.941.65-.489,1.314-1,1.992-1.518a107.039,107.039,0,0,0,11.509-9.9c5.109-5.473,18.61-22.441,22.624-27.732s2.737-4.926,9.852-9.3,32.841-29.374,46.16-40.686,15.508-8.758,22.076-16.42,8.21-12.771,15.143-23.718,18.975-41.234,18.975-41.234l2.445-3.036L362.4,343.634l16.369,18.61S379.451,369.5,368.468,387.794Z" transform="translate(-147.713 -56.895)" fill="#a99fa5"/>
        <path id="Path_536" data-name="Path 536" d="M407.634,514.405c-5.714,5.3-12.866,9.626-20.507,10.495-5.78-2.839-10.9-3.766-11.129-4.518-.3-.949,2.423-4.4,5.663-8.422,1.423-1.773,2.948-3.649,4.364-5.474,4.62-5.962,19.464-18.369,22.018-28.586,2.022-8.094,1.715-18.53.445-27.637a92.856,92.856,0,0,0-3-14.078c-.1-.328-.2-.664-.314-.985A154.989,154.989,0,0,0,390.4,402.615l-.139-.387c.022.088.036.182.051.27-.65,1.08-1.336,2.2-2.065,3.357-2.343,3.7-5.123,7.8-8.429,12.326-7.313,10.02-21.741,28.681-32.111,35.76-18.493,12.618-43.022,23.821-55.282,29.922a45.359,45.359,0,0,0-8.21,5.473s-2.832,4.379-.912,8.94c1.175,2.788,1.182,10.071.6,16.5a21.577,21.577,0,0,1-2.306-.81A19.72,19.72,0,0,1,270.607,503c-3.547-9.546,8.064-18.557,16.165-24.731s19.924-10.776,29.149-15.082c12.458-5.824,17.274-10.908,27.411-20.2,8.035-7.364,14.216-18.792,21.69-26.725q9.239-9.808,18.493-19.61c1.131-1.2,2.211-2.6,3.379-3.846a13.035,13.035,0,0,1,3.043-2.511c3.8-2.153,9.531-2.81,13.742-4.036q8.21,24.007,16.413,48.006c3.167,9.254,6.349,18.6,7.276,28.338A63.545,63.545,0,0,1,407.634,514.405Z" transform="translate(-169.561 -71.599)" fill="#040405" opacity="0.15"/>
        <path id="Path_537" data-name="Path 537" d="M352.554,331.84l-2.445,3.036s-12.042,30.287-18.975,41.234-8.575,16.056-15.143,23.718-8.758,5.109-22.076,16.42-39.044,36.307-46.16,40.686-5.838,4.014-9.852,9.3-17.515,22.259-22.624,27.732a111.3,111.3,0,0,1-12.1,10.357c-.47.36-.942.722-1.4,1.065-3.036,2.292-5.627,4.145-6.751,4.941-2.16,1.518-4.32,3.934-3.934,5.255A39.964,39.964,0,0,0,196,511.3a48.457,48.457,0,0,1,4.663-3.488q2.374-1.642,4.761-3.278c3.818-1.425,7.117-4.344,10.448-6.546,5.619-3.722,10.83-6.846,14.778-12.494,5.32-7.619,8.765-16.676,15.53-23.04,6.67-6.284,21.218-15.742,28.275-21.584,17.1-14.153,40.484-26.306,53.847-41.836s14.212-20.215,25.1-37.57c3.532-5.634,7.137-11.618,9.531-17.836Z" transform="translate(-148.241 -56.895)" fill="#fff" opacity="0.2"/>
        <path id="Path_538" data-name="Path 538" d="M616.631,602.265c-4.8,4.007-16.683,11.472-43.985,19-39.672,10.94-56.786-2.576-56.786-2.576l17.466-22.828c6.173-8.655,17-19.806,21.214-21.595-2.978,4.028-6.035,8.2-7.218,13.071s-.036,10.67,4.065,13.552c3.685,2.6,8.612,2.24,13.093,1.773q21.566-2.244,43.138-4.481a14.889,14.889,0,0,1,5.152.073,5.023,5.023,0,0,1,3.729,3.24A4.679,4.679,0,0,1,616.631,602.265Z" transform="translate(-236.006 -122.4)" fill="#040405" opacity="0.15"/>
        <path id="Path_539" data-name="Path 539" d="M589.542,426.133c-.263,1.343-.409,2.08-.409,2.08s-2.051,23.339-5.211,39.373a68.253,68.253,0,0,1-3.058,11.472c-4.846,11.772-12.027,27.426-13.749,34.3-1.1,4.386-2.349,10.967-2.875,13.886-1.445,1.124-3.518,2.279-4.949,3.41-2.992,2.357-5,3.021-7.794,5.634-.022.015-.036.037-.058.051-2.182,2.051-6.167,2.89-8.1,5.174-1.876,2.211-11.4,9.686-15.045,7.52-34.449-20.445-6.963.209-2.927,2.606,3.388,2.011,5.528-13.111,5.506-16.4a99.693,99.693,0,0,1,2.211-21.266c3.4-16.172,10.276-31.432,18.245-45.912,7.546-13.728,16.267-27.076,28.039-37.417C582.222,428.132,585.995,425.717,589.542,426.133Z" transform="translate(-234.737 -82.36)" fill="#040405" opacity="0.15"/>
        <g id="Group_528-2" data-name="Group 528" transform="translate(0.02 467.765)" opacity="0.2">
          <path id="Path_540" data-name="Path 540" d="M195.438,596.05c-1.46,12.151-6.043,23.959-10.567,35.439q-3.437,8.747-6.882,17.479-5.09,12.939-10.188,25.871C162.05,700,152.125,724.48,148.016,749.68c-.307,1.876-.584,3.758-.817,5.641a126.5,126.5,0,0,0-1.051,17.537c.117,9.166,1.306,18.683-.927,27.426a31.316,31.316,0,0,1-1.533,4.561,30.706,30.706,0,0,1-2.489,4.663,46.768,46.768,0,0,1-8.772,9.779l-.007.007c.124-3.664,1.029-7.926,5.262-10.3a3.574,3.574,0,0,0,1.044-.912,6.583,6.583,0,0,0,.438-.613c1.08-1.708,1.788-4.5,2.277-7.991.044-.285.08-.569.117-.861,1.518-11.881.825-31.075,3.379-44.343.007-.088.029-.168.044-.255.234-1.175.584-2.875,1.058-5.036,5.123-23.5,24.069-101.406,48.013-150.156C194.511,597.889,194.971,596.962,195.438,596.05Z" transform="translate(-132.42 -596.05)" fill="#fff"/>
        </g>
        <path id="Path_541" data-name="Path 541" d="M174.222,890.87s-9.363,32.25-17.325,11.757c-.2-.525-.409-1.095-.613-1.693-3.883-11.45-8.685-17.085-12.75-19.887a16.794,16.794,0,0,0-2.474-1.43A6.568,6.568,0,0,0,141.5,879c1.08-1.708,1.788-4.5,2.277-7.991a14.581,14.581,0,0,0,3.78.81,23.029,23.029,0,0,0,2.4.073c17.15-.365,23.3-11.086,23.3-11.086Z" transform="translate(-134.734 -199.823)" fill="#10100e"/>
        <path id="Path_542" data-name="Path 542" d="M211.33,852.046l1.693-1.336A9.747,9.747,0,0,1,211.33,852.046Z" transform="translate(-153.722 -197.094)" fill="#55325d"/>
        <path id="Path_543" data-name="Path 543" d="M214.307,849.77a1.158,1.158,0,0,0,.095.095l-.752.591A7.3,7.3,0,0,0,214.307,849.77Z" transform="translate(-154.348 -196.84)" fill="#55325d"/>
        <path id="Path_544" data-name="Path 544" d="M197.9,757.936a1.28,1.28,0,0,0-.029.387c.139,1.182,1.08,2.043,2.4,3.328,2.138,2.095,5.291,5.313,7.663,12.874.708,2.255.358,4.817-.007,7.006a8.283,8.283,0,0,1-1.16,3.284,44.864,44.864,0,0,0-9.962,9.779c-7.145-14.647-10.254-31.418-7.378-47.437,3.051-17.048,13.231-33.023,28.243-41.664,3.627-2.087,8.451-3.656,11.75-1.087.131.1.255.212.38.321a34.1,34.1,0,0,0-3.24,3.853C220.552,717.8,198.9,752.952,197.9,757.936Z" transform="translate(-147.515 -157.202)" fill="#040405" opacity="0.15"/>
        <path id="Path_545" data-name="Path 545" d="M185.819,815.572a8.13,8.13,0,0,0,1.284,2.817l-6.568,8.575-.482-1.934v-.007l-4.444-17.763a84.628,84.628,0,0,1-18.15-1.139,32.9,32.9,0,0,1-5.627-1.569,19.128,19.128,0,0,1-2.262-1.051c.007-.088.029-.168.044-.255.234-1.175.584-2.875,1.058-5.036a18.86,18.86,0,0,0,1.978.7,35.382,35.382,0,0,0,5.809,1.08,115.034,115.034,0,0,0,19.7-.029l9.254-21.712a1.279,1.279,0,0,0-.029.387c.139,1.182,1.08,2.043,2.4,3.328-1.2,4.766-3.218,13.348-4.328,21.1C184.578,809.259,185.126,813.229,185.819,815.572Z" transform="translate(-137.034 -177.516)" fill="#10100e"/>
        <path id="Path_546" data-name="Path 546" d="M196.641,611.991a6,6,0,0,0,1.573-3.718,1.7,1.7,0,0,0-.609-1.616,1.76,1.76,0,0,0-1.595.138,8.256,8.256,0,0,0-4.4,5.29,3.384,3.384,0,0,0-.123,1.4,1.576,1.576,0,0,0,.746,1.144,1.277,1.277,0,0,0,1.746-.716A12.112,12.112,0,0,0,196.641,611.991Z" transform="translate(-148.353 -131.113)" fill="#08090a"/>
        <path id="Path_547" data-name="Path 547" d="M186.717,600.752c1.062.053,2.362-.952,3.4-1.165A4.288,4.288,0,0,0,192.8,598a2.406,2.406,0,0,0-1.722-3.96,4.484,4.484,0,0,0-2.084.339,5.372,5.372,0,0,0-3.6,4.814,2.01,2.01,0,0,0,.307,1.118,1.006,1.006,0,0,0,1.016.439" transform="translate(-146.713 -127.737)" fill="#08090a"/>
        <path id="Path_548" data-name="Path 548" d="M193.6,575.807a9.657,9.657,0,0,0-4.822,3.048,3.818,3.818,0,0,0-.758,1.228,1.756,1.756,0,0,0,.082,1.408,2.244,2.244,0,0,0,2.389.766,5.637,5.637,0,0,0,4.059-3.14,2.734,2.734,0,0,0,.262-1.83c-.245-.9-.29-1.356-1.213-1.481" transform="translate(-147.395 -122.815)" fill="#08090a"/>
        <path id="Path_549" data-name="Path 549" d="M208.795,611.11c.809-1.525,3.546-6.284,5.169-6.872.7-.253,1.23-.782,1.757-.263a2.441,2.441,0,0,1,.467,1.843c-.043,1.906-.128,3.94-1.238,5.489-1.219,1.7-3.291,4.266-5.243,3.514C209.707,614.82,207.986,612.635,208.795,611.11Z" transform="translate(-152.978 -130.367)" fill="#08090a"/>
        <path id="Path_550" data-name="Path 550" d="M279.583,587.022c-.254-1.708-.876-7.161.08-8.6.41-.615.526-1.359,1.258-1.255a2.439,2.439,0,0,1,1.469,1.206c1.1,1.559,2.237,3.247,2.262,5.152.028,2.092-.117,5.387-2.134,5.94C282.519,589.466,279.837,588.731,279.583,587.022Z" transform="translate(-172.046 -123.18)" fill="#08090a"/>
        <path id="Path_551" data-name="Path 551" d="M578.469,566.23l.737.7a24.328,24.328,0,0,0-2.686,1.584Z" transform="translate(-252.396 -120.227)" fill="#040405" opacity="0.15"/>
        <path id="Path_552" data-name="Path 552" d="M704.928,810.832c-.182,3.642-1.963,5.722-4.488,6.751-4.656-7.021-6.086-16.165-7.05-24.31-5.167-43.518-4.6-87.488-6.9-131.247-1.759-33.476-5.291-67.207-14.136-99.435-3.145-.825-15.3-12.939-22.8-20.2-6.627-6.415-13.494,8.794-23.937,7.663-9.83-1.065-16.333-9.137-24.777-6.568a124.152,124.152,0,0,0-19,7.181c7.342-5.919,53.261-42.328,70.907-42.336,1.766,0,3.445.066,5.036.212,19.267,1.693,26.455,14.158,33.644,49.663.08.387.161.766.241,1.16.241,1.168.5,2.365.759,3.613.117.54.234,1.087.343,1.642.007.036.015.073.022.1.124.569.241,1.146.358,1.744.109.533.219,1.073.328,1.628s.212,1.087.314,1.657q.12.635.241,1.292c.109.591.212,1.2.321,1.817.212,1.255.431,2.569.635,3.956.058.38.117.759.168,1.146a.566.566,0,0,1,.015.109c.036.219.066.438.095.664s.066.445.095.671c.058.453.124.912.182,1.379.029.248.066.5.095.744.058.467.117.934.168,1.408a.57.57,0,0,1,.015.1c.051.46.109.927.161,1.394.066.584.124,1.182.19,1.788.022.182.036.372.058.562q.077.788.153,1.6c.073.825.153,1.664.219,2.525.044.467.08.934.117,1.409.066.92.139,1.868.2,2.839,0,.08.007.161.015.241q.055.854.109,1.73l.066,1.182c.037.62.073,1.255.1,1.9.015.35.036.7.051,1.058,1.219,26.149-.5,56.5,0,87.328.226,13.881.591,27.528,1,39.986q.088,2.551.175,5.036c1.022,29.725,2.233,51.56,2.233,51.56S705.534,798.914,704.928,810.832Z" transform="translate(-253.834 -104.583)" fill="#040405" opacity="0.15"/>
        <path id="Path_553" data-name="Path 553" d="M706.81,461.893c-.525.482-5.684,1.473-5.684,1.473s-11.517,1.016-17.968-.685c0,0,10.859,10.961,16.7,12.661s1.8,6.313-.759,6.073S682,474.664,679.69,471.862s6.875,11.494,16.238,15.756c5.853,2.657,2.705,4.685-1.761,5.167-3.474.379-9.819-4.779-12.833-6.559-2.386-1.409-5.133-3.424-6.205-5.059,0,0,11.073,13.187,10.25,14.173-1.522,1.823-10.947-.456-20.766-11.735-5.885-6.759-14.662-11.436-20.434-12.348s-2.372,5.78-4.685,10.341-8.152,8.028-12.042,5.59,3.773-7.3,3.773-7.3-.066-12.1,1.336-17.632,5.474-17.581,4.8-25.061c-.657-7.393-9.108-4.5-23.171-51.823-.161-.54-.321-1.08-.482-1.635-14.355-49.013-13.384-84.533-13.384-84.533l2.948-7.152,2.394-5.795h.058a7.651,7.651,0,0,1,2.109.292l.095.022c2.08.555,5.408,2.073,9.13,6.152.036.037.073.08.109.124.591.657,1.2,1.379,1.8,2.175.781,1.014,1.569,2.146,2.357,3.408.007.007.015.015.015.022,3.24,5.152,6.524,12.472,9.392,22.886,14.494,52.67,9.247,45.861,21.405,66.66,7.291,12.465,9.057,27.039,9.057,27.039l.92,11.392a13.633,13.633,0,0,1,3.043,8.758c0,5.473,15.078,17.274,15.078,17.274s9.909,5.467,24.994,5.591C710.647,458.1,708.758,460.112,706.81,461.893Z" transform="translate(-258.825 -44.578)" fill="#a99fa5"/>
        <path id="Path_554" data-name="Path 554" d="M716.924,570.395a9.663,9.663,0,0,0-5.268-2.189,3.809,3.809,0,0,0-1.441.088,1.749,1.749,0,0,0-1.1.877,2.242,2.242,0,0,0,.748,2.394,5.638,5.638,0,0,0,4.9,1.513,2.737,2.737,0,0,0,1.648-.839c.593-.717.941-1.017.512-1.844" transform="translate(-288.187 -120.754)" fill="#08090a"/>
        <path id="Path_555" data-name="Path 555" d="M639.773,553.358a9.658,9.658,0,0,0-4.98,2.782,3.814,3.814,0,0,0-.823,1.186,1.747,1.747,0,0,0,.006,1.409,2.242,2.242,0,0,0,2.343.895,5.637,5.637,0,0,0,4.224-2.915,2.734,2.734,0,0,0,.36-1.814c-.2-.91-.216-1.369-1.13-1.543" transform="translate(-267.88 -116.749)" fill="#08090a"/>
        <path id="Path_556" data-name="Path 556" d="M746.214,521.25a9.666,9.666,0,0,0-5.7-.247,3.827,3.827,0,0,0-1.323.577,1.751,1.751,0,0,0-.736,1.2,2.242,2.242,0,0,0,1.525,1.992,5.637,5.637,0,0,0,5.125-.263,2.736,2.736,0,0,0,1.259-1.354c.311-.877.535-1.279-.152-1.908" transform="translate(-296.15 -107.922)" fill="#08090a"/>
        <path id="Path_557" data-name="Path 557" d="M741.591,547.563a9.657,9.657,0,0,0-5.268-2.189,3.823,3.823,0,0,0-1.441.087,1.752,1.752,0,0,0-1.1.877,2.244,2.244,0,0,0,.748,2.394,5.637,5.637,0,0,0,4.9,1.513,2.728,2.728,0,0,0,1.647-.839c.594-.717.941-1.017.513-1.843" transform="translate(-294.852 -114.585)" fill="#08090a"/>
        <path id="Path_558" data-name="Path 558" d="M733.09,563.563a9.658,9.658,0,0,0-5.268-2.189,3.827,3.827,0,0,0-1.441.087,1.753,1.753,0,0,0-1.1.877,2.245,2.245,0,0,0,.748,2.394,5.637,5.637,0,0,0,4.9,1.513,2.73,2.73,0,0,0,1.647-.839c.594-.717.941-1.017.513-1.844" transform="translate(-292.555 -118.908)" fill="#08090a"/>
        <path id="Path_559" data-name="Path 559" d="M703.716,461.868c-2.883.438-17.859-3.842-20.734-4.447-18.427-3.912-21.966-13.316-31.95-29.291s-15.165-34.446-19.157-52.852c-3.795-17.5-6.634-35.264-12.093-52.3-.285-.89-.577-1.781-.876-2.664-3.116-9.2-7.24-18.406-14.406-24.959a32.245,32.245,0,0,0-4.32-3.328,35.673,35.673,0,0,0-11.319-4.787c.613-.08,1.211-.161,1.8-.226,5.167-.6,8.9-1.022,11.969-.781a7.651,7.651,0,0,1,2.109.292l.095.022c3.284.7,5.9,2.5,9.13,6.152.036.037.073.08.109.124.591.657,1.2,1.379,1.8,2.175.5.62,1.014,1.284,1.547,1.992a7,7,0,0,1,.81,1.416c.007.007.015.015.015.022,3.24,5.152,6.524,12.472,9.392,22.886,14.494,52.67,9.247,45.861,21.405,66.66,7.291,12.465,9.057,27.039,9.057,27.039l.92,11.392a13.633,13.633,0,0,1,3.043,8.758c0,5.473,15.078,17.274,15.078,17.274s8.074,5.349,23.158,5.473C705.717,457.956,705.664,460.087,703.716,461.868Z" transform="translate(-255.731 -44.554)" fill="#040405" opacity="0.15"/>
        <path id="Path_560" data-name="Path 560" d="M670.327-41.277a11.3,11.3,0,0,0-3.338-.931,16.346,16.346,0,0,0-3.351-.089,9.649,9.649,0,0,0-1.628.342,7.9,7.9,0,0,1-1.615.245,15.72,15.72,0,0,1-1.723-.018A8.6,8.6,0,0,1,656.737-42l-.107-.271a6.188,6.188,0,0,1,1.449-1.437,7.425,7.425,0,0,1,1.751-.87,8.246,8.246,0,0,1,3.872-.057,17.3,17.3,0,0,1,1.9.377,8.721,8.721,0,0,1,.915.293,8.544,8.544,0,0,1,.888.352,10.241,10.241,0,0,1,3.107,2.1Z" transform="translate(-274.042 44.885)" fill="#08090a"/>
        <path id="Path_561" data-name="Path 561" d="M618.207-37.956a20.183,20.183,0,0,1,3.65-3.351,23.012,23.012,0,0,1,2.132-1.349,11.7,11.7,0,0,1,1.141-.57c.391-.171.772-.374,1.182-.51.4-.153.809-.309,1.215-.48l1.262-.415a5.832,5.832,0,0,1,1.314-.236,5.183,5.183,0,0,1,1.34.021c.447.068.89.147,1.325.25a11.19,11.19,0,0,1,1.266.5c.2.1.407.19.6.3l.563.4a6.994,6.994,0,0,1,1.017.946l-.116.347a43.437,43.437,0,0,1-4.658.907c-.351.023-.7.1-1.053.121s-.709-.014-1.068.018l-1.1,0c-.368.03-.735.079-1.1.13s-.731.15-1.1.225a9.973,9.973,0,0,0-1.1.289,20.942,20.942,0,0,0-2.195.713,28.351,28.351,0,0,0-4.277,2.019Z" transform="translate(-263.66 44.901)" fill="#08090a"/>
      </g>
    </g>
  </g>
</svg>
