<svg xmlns="http://www.w3.org/2000/svg" xmlns:xlink="http://www.w3.org/1999/xlink" width="375" height="772" viewBox="0 0 375 772">
  <defs>
    <clipPath id="clip-path">
      <rect id="Rectangle_1554" data-name="Rectangle 1554" width="375" height="772" transform="translate(0 600)" fill="#fff" stroke="#707070" stroke-width="1"/>
    </clipPath>
  </defs>
  <g id="Group_618" data-name="Group 618" transform="translate(0 -1165)">
    <g id="Mask_Group_9" data-name="Mask Group 9" transform="translate(0 565)" clip-path="url(#clip-path)">
      <path id="Path_411" data-name="Path 411" d="M-306-2974.511s244.123-102.893,766.919,34.3,89.658,403,325.8,514.465,430.612-32.583,503.854-161.2-30.307-332.688,39.147-378.989,118.7-109.752,281.6-101.178,0,864.3,0,864.3H-306Z" transform="translate(-459 3638.97)" fill="#6a6a6a"/>
      <path id="Path_412" data-name="Path 412" d="M-306-2966.081s271.071-112.182,851.576,37.395,99.555,439.38,361.764,560.909,478.146-35.523,559.472-175.752-33.652-362.722,43.468-413.2,131.806-119.661,312.688-110.313,0,942.329,0,942.329H-306Z" transform="translate(-601 3598.87)"/>
    </g>
    <g id="Group_528" data-name="Group 528" transform="translate(-84.924 1517.832)">
      <g id="mn" transform="translate(306.122 -112.586)">
        <path id="Path_472" data-name="Path 472" d="M740.86,556.22c.014.014.028.037.046.06v.023C740.888,556.266,740.869,556.238,740.86,556.22Z" transform="translate(-634.159 -247.981)" fill="#a99fa5"/>
        <path id="Path_473" data-name="Path 473" d="M761.556,415.993c-1.24,7.466-2.9,12.31-4.752,15.306-6.775,10.927-16.14-2.839-16.993-4.079l-.922-103.7-.06-6.692s1.161,2.461,2.964,6.7c.7,1.631,1.489,3.526,2.346,5.65,4.6,11.361,11.1,29.183,14.988,47.452C762.049,390.34,763.5,404.31,761.556,415.993Z" transform="translate(-633.064 -118.921)" fill="#a99fa5"/>
        <path id="Path_474" data-name="Path 474" d="M739.43,487.979c-1.8,13.8-6.591,33.907-4.715,48.987.17,1.36.263,2.705.3,4.023s.023,2.581-.037,3.834c-.032.793-.078,1.572-.143,2.341-.1,1.3-.235,2.553-.378,3.779-1,8.7-2.507,15.605,2.825,19.32,2.47,1.724,2.157,2.917.484,3.632a0,0,0,0,1,0,0,12.6,12.6,0,0,1-3.857.76c-.184.014-.373.023-.567.032-4.48.2-10.13-.728-11.222-2.618-2.212-3.825.318-8.646,1.263-19.463.4-4.586-.544-11.176-1.373-15.758-.567-3.111-1.078-5.291-1.078-5.291s-1.641-4.037-7.116-25.169-6.6-42.926-5.2-57.366-10.494-42.1-10.494-42.1l-8.208-24.865L685,339.751l23.911-8.411.959,0,2.9,0,1.212,0L715.119,337l10.038,50.047,7.379,36.769s2.079,14.739,4.489,26.362S741.232,474.171,739.43,487.979Z" transform="translate(-604.043 -126.744)" fill="#a99fa5"/>
        <path id="Path_475" data-name="Path 475" d="M609.688,424.206s-9.135,20.776-20.011,5.36a39.726,39.726,0,0,1-3.36-5.876c-.894-1.867-1.793-4-2.692-6.434-3.033-8.194-4.448-18.168-4.816-28.69C577.546,352.912,588.22,311,588.22,311l2.35,12.4Z" transform="translate(-546.738 -115.778)" fill="#a99fa5"/>
        <path id="Path_476" data-name="Path 476" d="M701.189,459.073s-8,5.34-23.444-46.89" transform="translate(-600.132 -170.328)" fill="#a99fa5"/>
        <path id="Path_477" data-name="Path 477" d="M619.42,406.47s-6.213,32.031-4.825,46.461.41,36.239-4.678,57.4c-2.4,9.983-4.517,18.255-6.079,24.205-1.747,6.66-2.807,10.411-2.807,10.411s-.668,1.419,0,9.112c.935,10.808,4.171,12.545,2.1,16.384a3.191,3.191,0,0,1-.986,1.032c-2.254,1.6-7.162,2.373-10,1.908a5.025,5.025,0,0,1-1.244-.346c-1.115-.5-1.337-1.4.143-2.784a10.124,10.124,0,0,1,.885-.733c4.766-3.549,3.8-8.494,2.908-15.5a56.943,56.943,0,0,1-.392-14.227c1.111-9.789-2.185-21.159-5.116-31.709a119.673,119.673,0,0,1-3.692-16.034c-1.756-13.794-.106-26.178,2.12-37.811a126.215,126.215,0,0,0,1.9-18.14c.147-3.871.1-6.434.1-6.434l.332-7.54.9-20.265,2.922-66.049.037-.811,4.724-.982,23.45,3.742,1.42,42.641Z" transform="translate(-550.077 -128.188)" fill="#a99fa5"/>
        <path id="Path_478" data-name="Path 478" d="M627.53,33.223l-3.268,4.6L613.353,53.179l-.5.71s-.009.226-.023.641c-.083,2.668-.378,13.14-.258,21.606a69.141,69.141,0,0,0,.659,10.4c1.272,5.918,2.47,10.522,2.844,16.287s.373,17.707.373,17.707-15.126,13.481-43.134,12.13c-2.936-.138-5.54-.373-7.844-.682-19.656-2.6-17.633-10.434-17.633-10.434s.332-6.144.341-11.066c0-2.53-.124-4.309-.23-6.563-.051-1.208-.1-2.549-.111-4.222-.009-1.065-.014-2.125-.018-3.171-.042-7.213-.143-13.8-1.553-16.255-1.576-2.761-2.636-2.258-6.107-5.176a16.08,16.08,0,0,1-3.6-5.014l-.009-.028c-.387-.793-.59-1.332-.59-1.332l0,.023a94.785,94.785,0,0,0-2.917,12.78,38.347,38.347,0,0,1-4.719,14.223s.922,4.411,1.705,11.6v0c.295,2.747.571,5.895.77,9.36.429,7.623-.521,18.053.369,25.385,1.313,10.817,4.466,18.767,5.392,19.652,2.586,2.475,3.876,6.406,3.484,11.292s1.12,6.623,1.12,6.623a6.524,6.524,0,0,1,2.53.341c1.042.442-.382,3.4-.442,3.53,1.009-1.341,3.922-1.452,4.318.12s-1.627,3.987-1.627,3.987c2.244,1.8,1.175,2.526,1.175,2.526a14.461,14.461,0,0,1-9.545,1.913c-.677-.129-1.221.3-1.913,0-5.95-2.586-12.052-11.494-12.052-11.494a68.047,68.047,0,0,0,.147-15.725,8.98,8.98,0,0,0-.719-2.581,20.432,20.432,0,0,1-1.355-3.447c-1.185-4.724.106-3.484-2.867-12.545-9.678-29.459-10.033-46.572-9.135-50.019a57.692,57.692,0,0,0,1.046-9.881c0-15.052,3.143-32.8,3.143-32.8l-1.009-8.646s-2.36-9.287,7.637-21c2.572-3.014,6.558-4.623,11.121-8.088,9.877-7.512,14.886-13.2,17.417-16.951,2.387-3.549,2.576-5.365,2.576-5.365q-.138-1.092-.29-2.1c-1.867-12.467-5.1-15.569-5.1-15.569l-6.457-13.084,17.689-4.268,21.353,30.413.6.548.627.576s.083.055.244.157a65.263,65.263,0,0,0,15.67,6.623A125.755,125.755,0,0,0,608.62-.14c3.858.622,7,1.387,8.669,2.83a29.657,29.657,0,0,1,5.793,6.72C630.138,20.623,627.53,33.223,627.53,33.223Z" transform="translate(-509.343 74.257)" fill="#a99fa5"/>
        <path id="Path_479" data-name="Path 479" d="M747.413,224.288" transform="translate(-637.692 -69.03)" fill="#a99fa5"/>
        <path id="Path_480" data-name="Path 480" d="M614.93-48.626a5.13,5.13,0,0,1-3.469,3.7,14.665,14.665,0,0,1-3.046.719c-3.06.454-19.023-1.424-21.565-5.167s-3.841-13.7-3.841-13.7L572.226-71c-.278-1.015-3.082-11.8-2.579-18.088.615-7.74,8.888-10.266,18.051-13.278,5.57-1.831,11.534-2.927,16.587.188,4.776,2.943,7.261,1.61,8.807,4.347,2.767,4.919,1.684,8.743,1.684,8.743s1.424,10.877,1.051,11.775.225,10.711,1.11,16.026S615.753-51.771,614.93-48.626Z" transform="translate(-541.822 108.031)" fill="#a99fa5"/>
        <path id="Path_481" data-name="Path 481" d="M640.875-3.487s7.638-3.145,10.727-1.628" transform="translate(-580.255 54.869)" fill="#08090a"/>
        <path id="Path_482" data-name="Path 482" d="M647.09-.2a10.212,10.212,0,0,0,6.374-.9" transform="translate(-583.606 52.481)" fill="#08090a"/>
        <path id="Path_483" data-name="Path 483" d="M549.024,46.14a17.528,17.528,0,0,1-.419,1.738c-4.544,15.661-20.965,20.707-26.519,34.382-3.106,7.66.3,18.223-1.6,28.344-4.162,22.233-7.227,45.636,2.959,94.393a7.654,7.654,0,0,1-.419,4.526,20.431,20.431,0,0,1-1.355-3.447c-1.185-4.724.106-3.484-2.867-12.545-9.678-29.459-10.033-46.572-9.135-50.019a57.692,57.692,0,0,0,1.046-9.881c0-15.052,3.143-32.8,3.143-32.8l-1.009-8.646s-2.36-9.287,7.637-21c2.572-3.014,6.558-4.623,11.121-8.088C541.484,55.579,546.493,49.892,549.024,46.14Z" transform="translate(-509.343 27.014)" fill="#fff" opacity="0.2"/>
        <path id="Path_484" data-name="Path 484" d="M668.761,224.853l.383.014S669.262,224.777,668.761,224.853Z" transform="translate(-595.289 -69.318)" fill="#040405"/>
        <path id="Path_485" data-name="Path 485" d="M591.988,167.629c-5.095,1.945-22.913,11.829-31.9-10.333-4.709-11.609-5.432-4.812-5.05,4.295a15.982,15.982,0,0,1-1.842,3.491c-4.192,5.989-9.731,31.9-7.188,38.117,1.307,3.194,2.5,5.809,3.428,8.006-.782-7.2-1.7-11.6-1.7-11.6a38.342,38.342,0,0,0,4.718-14.224,95.537,95.537,0,0,1,2.915-12.782l0-.023c.117-.512.22-1.015.324-1.509.09,1,.18,1.95.27,2.844l.009.027a16.115,16.115,0,0,0,3.6,5.014c3.469,2.916,4.529,2.417,6.106,5.176,1.411,2.457,1.514,9.044,1.555,16.255.1-.09-.47,11.062.346,15.59-.064,4.548-.328,9.431-.328,9.431s-2.022,7.831,17.634,10.437c-2.39-3.9-6.142-10.347-7.692-14.7-2.359-6.627,19.207-5.953,4.83-6.964a24.459,24.459,0,0,1-8.229-1.971c2.79-4.011,5.906-9.348,8.559-13.478-.015-.3-.023-.6-.013-.9.106-3.171.307-6.568,1.624-9.5a12.317,12.317,0,0,1,2.672-3.748L582.1,184.4s8.986-10.782,13.029-11.533c4.02-.742,3.63-2.788,3.63-2.788S597.078,165.679,591.988,167.629Z" transform="translate(-528.764 -29.6)" fill="#040405" opacity="0.15"/>
        <path id="Path_486" data-name="Path 486" d="M623.386,10.206c-1.6,1.847-4.248,3.331-8.746,3.855-5.712.666-11.275-.454-17.012-5.212-3.13-2.932-8.3-12.984-8.3-12.984l5.176-.252c.638,3.069,1.636,6.8,2.988,8.788C600.037,8.144,616,10.022,619.06,9.569a15.913,15.913,0,0,0,2.853-.642l1.226,1.128S623.225,10.108,623.386,10.206Z" transform="translate(-552.466 54.253)" fill="#040405" opacity="0.15"/>
        <path id="Path_487" data-name="Path 487" d="M705.539,187.88c-2.637-3.437-6.883-8.262-10.6-9.268-2.287-.62-8.289-1-10.823-2.458a20.861,20.861,0,0,1-2-1.28.79.79,0,0,1,.6-1.419,22.35,22.35,0,0,0,10.257-.764c8.819-2.471,12.746-6.91,12.746-6.91l.072.494C705.714,168.943,705.418,179.411,705.539,187.88Z" transform="translate(-602.311 -37.487)" fill="#040405" opacity="0.15"/>
        <path id="Path_488" data-name="Path 488" d="M581.183-81.193c-1.348.818,0,11.65,0,11.65h-1.572s-1.572-5.921-4.38-5.825a20.642,20.642,0,0,0-6.328,1.683L566.69-81.9s-3.291-7.991-2.28-11.81,8.181-14.9,15.706-15.126,11.4-6.256,18.738-2.55,12.46.762,14.227,10.326c1.847,9.994-.524,8.715-.524,8.715s-.207-.467-4.351-2.022c-13.77-5.167-12.6-.449-17.732.449s-8.056,2.359-8.168,6.29A20.271,20.271,0,0,1,581.183-81.193Z" transform="translate(-538.927 112.586)" fill="#08090a"/>
        <path id="Path_489" data-name="Path 489" d="M582-31.165s-3.875-2.527-5.84-1.4-2.359,3.931-.9,6.234,2.808,4.83,6.009,6.851,4.324-.842,4.324-.842" transform="translate(-544.407 69.602)" fill="#a99fa5"/>
        <path id="Path_490" data-name="Path 490" d="M623.06-43.354a5.13,5.13,0,0,1-3.469,3.7,3.186,3.186,0,0,1-1.218-1.379c-1.55-3.769,5.284-11.941,3.513-13.851s-6.391-1.5-6.391-1.5,6.589-3.894,4.316-6.252-.77,1.984-3.876-14.864c-.979-5.312-6.28-2.957-15.266-2.4s-9.531,17.934-9.531,17.934-6.007-9.547-6.344-9.8.112-22.207,0-22.544c-.081-.238,22.58.427,36.427,1.756,2.767,4.919,1.685,8.743,1.685,8.743s1.424,10.877,1.051,11.775.225,10.711,1.11,16.026S623.883-46.5,623.06-43.354Z" transform="translate(-549.952 102.759)" fill="#040405" opacity="0.15"/>
        <path id="Path_491" data-name="Path 491" d="M597.963-77.277s-7.937,24.86,2.546,36.991,21.543,9.839,21.543,9.839-3.965,3.19-11.21,2.965-13.047-.83-15.125-5.435-1.265-10.766-1.265-10.766l.216-6.825s-4.605-8.424-5.391-16.4S597.963-77.277,597.963-77.277Z" transform="translate(-552.412 93.55)" fill="#040405" opacity="0.15"/>
        <path id="Path_492" data-name="Path 492" d="M579.439,310.165a.309.309,0,0,1,.384-.284c3.134.775,25.785,6.13,44.562,3.711,20.218-2.6,25.229-6.947,25.229-6.947s1.2,3.444,1.8,3.369.075,2.814.224,3.578,1.423,1.888,1.423,1.888,4.156,12.056,6.515,14.19.463,10.9,4.218,14.826,9.26,20.959,11.169,22.5-.225,5.358,1.573,8.165c1.239,1.937-.674,1.917-1.98,1.718a.436.436,0,0,0-.476.586,1.529,1.529,0,0,1-.464,1.739c-1.348,1.348-3.257,6.842-34.389,7.546,0,0-11.662,5.072-15.706,4.4l-1.485-4.642-.312,5.466s-19.88,6.851-26.77,3.482-8.162-2.546-13.4-4.418-10.483.9-10.483.9a82.462,82.462,0,0,1,3.445-29.428c1.647-5.524-.508-12.211.224-20.143.822-8.906,2.673-16.929,3.744-23.334A84.268,84.268,0,0,0,579.439,310.165Z" transform="translate(-542.517 -113.43)" fill="#060709"/>
        <path id="Path_493" data-name="Path 493" d="M730.11,159.268c0-.009,0-.018,0-.028l0,.06Z" transform="translate(-628.363 -33.961)" fill="#a99fa5"/>
        <path id="Path_494" data-name="Path 494" d="M769.18,206.642s-3.788,10.112-8.946,14.043c-.6.461-1.231.175-1.853.461a14.464,14.464,0,0,1-9.729.433s-1.212-.452.539-2.733c0,0-2.544-1.862-2.535-3.484s2.857-2.208,4.162-1.148c-.092-.115-2.185-2.645-1.277-3.323a6.481,6.481,0,0,1,2.373-.936s1.051-2.051-.5-6.7-1.24-8.775.673-11.794c.687-1.083,1.844-9.559.525-20.376-.894-7.333-4.314-17.228-5.724-24.735-.636-3.411-1.125-6.531-1.5-9.268v0c-.963-7.176-1.129-11.674-1.129-11.674a38.385,38.385,0,0,1-7.987-12.679,77.515,77.515,0,0,0-3.9-8.167c-1.06-1.968-1.89-3.369-2-3.544l-.009-.023s-.074.562-.253,1.41l3.489-37.387,1.046-11.2a36.62,36.62,0,0,1,7.452,6.978c5.033,6.356,5,11.587,5,11.587l1.092,8.637s7.3,16.476,10.914,31.086a57.9,57.9,0,0,0,3.383,9.347c1.7,3.129,5.457,19.832,3.125,50.747-.719,9.513.235,8,.221,12.868,0,2.415-.876,3.95-.571,6.351A68.257,68.257,0,0,0,769.18,206.642Z" transform="translate(-628.369 22.878)" fill="#a99fa5"/>
        <line id="Line_36" data-name="Line 36" x2="1.647" y2="18.196" transform="translate(40.833 272.811)" fill="none"/>
        <path id="Path_496" data-name="Path 496" d="M730.476,191.482s-3.788,10.112-8.946,14.043c-.6.461-1.231.175-1.853.461a14.465,14.465,0,0,1-9.729.433s-1.212-.452.539-2.733c0,0,7.351,2.954,11.181-.8s5.411-11.365,4.489-12.518S723.392,177,722.7,169.627s.922-32.953,0-46.765c-.811-12.186-13.439-32.091-18.117-48.821a49.932,49.932,0,0,1-1.4-6.5,35.193,35.193,0,0,0-8.277-17.689c-12.458-14.9-34.313-22.154-36.575-23.021a14.26,14.26,0,0,1,1.383-1.143l.627.576s.083.055.244.157a65.264,65.264,0,0,0,15.67,6.623,125.751,125.751,0,0,0,12.688,3.033c3.857.622,7,1.387,8.669,2.83a29.656,29.656,0,0,1,5.793,6.72c5.033,6.356,5,11.587,5,11.587l1.092,8.637s7.3,16.476,10.914,31.086a57.887,57.887,0,0,0,3.383,9.347c1.7,3.129,5.457,19.832,3.125,50.747-.719,9.513.235,8,.221,12.868,0,2.415-.876,3.95-.571,6.351A68.257,68.257,0,0,0,730.476,191.482Z" transform="translate(-589.665 38.039)" fill="#040405" opacity="0.15"/>
        <path id="Path_497" data-name="Path 497" d="M778.2,779.095a8.07,8.07,0,0,1-.4,1.2,2.322,2.322,0,0,1-.8,1.1l-.009.009a1.531,1.531,0,0,1-1.632-.1,2.43,2.43,0,0,1-1.032-1.613,7.21,7.21,0,0,1-.2-1.318c.014.359.018.853.023,1.364,0,.618,0,1.272-.037,1.765-.088,1.3-2.055,1.092-2.438.922a2.833,2.833,0,0,1-1.1-1.848,10.933,10.933,0,0,1-.281-1.576s-.014-.037-.032-.1c-.143-.429-.691-1.949-.567.032.014.212.032.47.064.77.037.369.06.7.069,1,.078,2.622-.8,3.1-1.76,3.1-1.06,0-2.037-1.392-2.484-2.595,0,0,0,0,0-.009-.443-1.2-.885-3.3-.8-.3a3.183,3.183,0,0,1-.009.364,2.927,2.927,0,0,1-4.881,2.037c-1.069-.857-1.148-1.618-1.014-2.111l-.263.5a2.1,2.1,0,0,0-.1.235,3.49,3.49,0,0,1-1.613,2.226h0c-.917.415-2.028.037-3.318-.544-1.756-.793-1.069-2.71-.705-3.48a1.858,1.858,0,0,0,.17-.793V776.2a1.87,1.87,0,0,1,.166-.765c4.729-10.609,4.4-23.883,4.369-24.745v-.092l.055-2.894.028-1.406a2.263,2.263,0,0,1,.032-.309c.092-.525.415-2.378.664-4.895a56.457,56.457,0,0,0,.2-9.48c-.4-5.36-3.175-14.813-4.517-19.15a1.7,1.7,0,0,1,1.442-2.291h14.444a1.645,1.645,0,0,1,1.53,1.807l-.811,19.131-.433,8.84a1.939,1.939,0,0,0,.051.544l1,4.208c.042.175.078.35.106.525a10.124,10.124,0,0,1-.037,3.834c-.055.3-.129.585-.212.871l-.023.083a1.983,1.983,0,0,0,.028,1.18c.023.064.046.134.065.207.793,2.516,1.95,9,2.106,9.867a1.448,1.448,0,0,0,.041.194l1.466,5.074c.009.023.014.032.014.032l2.387,8.254a1.82,1.82,0,0,0,.295.59A4.224,4.224,0,0,1,778.2,779.095Z" transform="translate(-640.396 -330.979)" fill="#a99fa5"/>
        <path id="Path_498" data-name="Path 498" d="M613.676,782.535s0,0-.009,0a11.189,11.189,0,0,1-1.286.645.465.465,0,0,1-.069.032,3.641,3.641,0,0,1-1.2.3c-.954.046-1.774-.5-2.475-2.106-.028-.051-.051-.111-.074-.166a1.528,1.528,0,0,0-.115-.231l-.281-.475a1.545,1.545,0,0,1,.028.779,2.919,2.919,0,0,1-.931,1.479c-1.8,1.724-5,1.065-5.107-2.046v0c-.092-2.788-.355-1.313-.673-.051-.037.147-.074.295-.115.433-.346,1.194-1.152,2.609-2.134,2.876a1.877,1.877,0,0,1-.221.041,1.539,1.539,0,0,1-1.028-.212c-.608-.4-1.032-1.456-.945-3.89v-.106c.12-3.5-.585-.572-.585-.572s0,.124-.014.327c-.06.8-.286,2.839-1.166,3.341a2.9,2.9,0,0,1-1.332.212c-.023,0-.046,0-.069,0a.563.563,0,0,1-.092-.009,1.079,1.079,0,0,1-1.037-.936c-.115-.894-.184-2.314-.212-3.148-.009.908-.157,2.466-1.06,3.056a1.842,1.842,0,0,1-1.272.378.072.072,0,0,0-.018,0c-.673-.115-1.23-.853-1.733-2.406a4.539,4.539,0,0,1,.475-3.876,1.894,1.894,0,0,0,.263-.636l3.056-14.181c.014-.069.023-.134.032-.2.1-.936.9-8.125,1.549-10.628a2.12,2.12,0,0,0-.046-1.221l-.032-.083a10.8,10.8,0,0,1-.475-5.406l.742-4.448a2.294,2.294,0,0,0,.014-.562l-1-9.116-2.051-19.735a1.957,1.957,0,0,1,.147-.986,1.565,1.565,0,0,1,1.286-1.023l3.9-.346,10.729-.945a1.723,1.723,0,0,1,1.608,2.245c-1.083,4.609-3.281,14.647-3.346,20.228a54.35,54.35,0,0,0,.332,6.291,71.052,71.052,0,0,0,1.461,8.517,1.9,1.9,0,0,1,.051.318l.364,4.443c0,.037,0,.064,0,.1.028.89.544,14.665,6.014,25.224a2.04,2.04,0,0,1,.212.779l.2,3.249a1.935,1.935,0,0,0,.226.807C614.575,779.64,615.391,781.553,613.676,782.535Z" transform="translate(-551.864 -329.091)" fill="#a99fa5"/>
        <path id="Path_499" data-name="Path 499" d="M615.976,855.538s0,0-.009,0a4.02,4.02,0,0,1-1.286.645.2.2,0,0,1-.074.028,8.91,8.91,0,0,1-1.2.3.017.017,0,0,1-.014,0,38.151,38.151,0,0,1-11.863.484c-.442-.055-.857-.111-1.249-.171-1.834-.286-3.166-.613-4.042-.687-.023,0-.046,0-.069,0a.563.563,0,0,1-.092-.009,15.031,15.031,0,0,1-3.581-.65.073.073,0,0,0-.018,0l.959-4.715,1.774-2.2,1.019-1.272,4.194-5.208,5.8,3.3,2.438,1.387S619.442,852.791,615.976,855.538Z" transform="translate(-554.164 -402.094)" fill="#a99fa5"/>
        <path id="Path_500" data-name="Path 500" d="M777.692,849.342a3.079,3.079,0,0,1-.525.705l-.009.009A4.358,4.358,0,0,1,774.5,851.3c-2.323.277-7.789,2.521-17.43,1.5h0c-.249-.028-.5-.055-.76-.088-5.715-.691-3.521-3.8-.526-6.374a43,43,0,0,1,5.088-3.65l8.5-5.176,7.775,8.25.4,2.6Z" transform="translate(-640.568 -399.636)" fill="#a99fa5"/>
        <path id="Path_501" data-name="Path 501" d="M783.53,550.107c-1.8,13.8-6.591,33.907-4.715,48.987.17,1.36.263,2.705.3,4.023a10.125,10.125,0,0,1-.037,3.835c-.032.793-.078,1.572-.143,2.341.793,2.516,1.95,9,2.106,9.867a1.44,1.44,0,0,0,.042.194l1.466,5.074a89.894,89.894,0,0,1-3.991-11.356,96.392,96.392,0,0,1-3.023-14.9c-1.023-8.678.221-19.057,1.5-30.109.876-7.581,1.77-15.476,1.959-23.353.4-16.762-6.462-27.911-7.107-43.461a55.716,55.716,0,0,1,.194-7.577c1.844-19.809-5.277-43.212-5.277-43.212l2.456-1.286,4.95-2.595c2.922,13.711,4.369,27.68,2.429,39.364,0,0,2.079,14.739,4.489,26.362S785.332,536.3,783.53,550.107Z" transform="translate(-648.143 -188.872)" fill="#040405" opacity="0.15"/>
        <path id="Path_502" data-name="Path 502" d="M777.8,824.193a2.323,2.323,0,0,1-.8,1.1l-.009.009a4.357,4.357,0,0,1-2.655,1.249c-2.323.276-7.789,2.521-17.43,1.5h0c-.917.415-2.028.037-3.318-.544-1.756-.793-1.069-2.71-.705-3.48a1.858,1.858,0,0,0,.17-.793V820.1a1.871,1.871,0,0,1,.166-.765c4.729-10.609,4.4-23.883,4.369-24.745v-.092l.055-2.894a18.067,18.067,0,0,1,1.972,11.093c-1.383,7.526-5.222,14.131-4,18.9.867,3.346,5.143,3.811,9.158,3.576l.811-.055c1.406-.115,2.747-.295,3.858-.452l.387-.055c.258-.042.507-.083.747-.129,1.424-.258,2.6-.59,3.576-.839.06-.014.12-.028.175-.046,1.387-.346,2.36-.5,3.051.023a1.262,1.262,0,0,1,.148.125A1.208,1.208,0,0,1,777.8,824.193Z" transform="translate(-640.396 -374.879)" fill="#040405" opacity="0.15"/>
        <path id="Path_503" data-name="Path 503" d="M607.306,658.32a3.637,3.637,0,0,1-1.2.295.017.017,0,0,1-.014,0,38.157,38.157,0,0,1-11.863.484,1.867,1.867,0,0,1-.221.041,1.539,1.539,0,0,1-1.028-.212c-1.834-.286-3.166-.613-4.042-.687-.023,0-.046,0-.069,0a.564.564,0,0,1-.092-.009,15.034,15.034,0,0,1-3.581-.65.072.072,0,0,0-.018,0c-.673-.115-1.231-.853-1.733-2.406a4.539,4.539,0,0,1,.475-3.876,1.9,1.9,0,0,0,.263-.636l3.056-14.181c.014-.069.023-.134.032-.2.1-.936.9-8.125,1.549-10.628a2.118,2.118,0,0,0-.046-1.221l-.032-.083a10.8,10.8,0,0,1-.475-5.406L589,614.49a2.3,2.3,0,0,0,.014-.562l-1-9.116-2.051-19.735a1.955,1.955,0,0,1,.147-.986,119.674,119.674,0,0,1-3.692-16.034c-1.756-13.794-.106-26.178,2.12-37.811a126.214,126.214,0,0,0,1.9-18.14c-.894-1.867-1.793-4-2.692-6.434-3.033-8.194-4.448-18.168-4.816-28.69L583.212,475s1.747,12.748,3.659,23.132a103.483,103.483,0,0,0,2.47,10.974,22.359,22.359,0,0,1,.456,8.877c-.7,7.079-2.775,15.776-1.281,25,1.111,6.853,2.069,23.4,2.779,39.742.7,16.066,1.148,31.934,1.263,38.193a42.982,42.982,0,0,1-.94,9.112c-1.212,6.084-3.222,11.808-3.793,16.232a15.072,15.072,0,0,0-.143,2.784,7.74,7.74,0,0,0,.226,1.618,5.412,5.412,0,0,0,.608,1.512,6.276,6.276,0,0,0,2.917,2.521c.194.088.4.17.6.244a17.434,17.434,0,0,0,4.443.857c.226.023.447.041.673.055a58.424,58.424,0,0,1,6.038.567c.147.028.3.055.443.092a8.9,8.9,0,0,1,2.756,1.032,3.755,3.755,0,0,1,.917.774A0,0,0,0,1,607.306,658.32Z" transform="translate(-546.859 -204.194)" fill="#040405" opacity="0.15"/>
      </g>
      <g id="woman" transform="translate(132.393 -81.391)">
        <path id="Path_504" data-name="Path 504" d="M338.342,727.094a23.952,23.952,0,0,0-3.76,18.68c2.426,10.674,6.186,18.679,7.52,26.564s-3.4,13.828-5.337,18.68,1.412,13.343,1.412,13.343h6.109s-.728-5.216,3.639-16.618,2.3-15.768,1.7-24.016-6.463-17.1,1.018-26.564,3.712-16.375,3.712-16.375Z" transform="translate(-241.093 -367.897)" fill="#434342"/>
        <path id="Path_505" data-name="Path 505" d="M653.674,727.094a23.952,23.952,0,0,1,3.76,18.68c-2.426,10.674-6.186,18.679-7.52,26.564s3.4,13.828,5.337,18.68-1.412,13.343-1.412,13.343h-6.109s.728-5.216-3.639-16.618-2.3-15.768-1.7-24.016,6.463-17.1-1.018-26.564-3.712-16.375-3.712-16.375Z" transform="translate(-404.283 -367.897)" fill="#434342"/>
        <path id="Path_506" data-name="Path 506" d="M287.818,571.651v16.67s-17.878.092-33.8-.065c-9.513-.1-18.32-.281-22.2-.627-10.37-.922-28.8-6.452-28.8-6.452s-.6,10.992-4.839,19.011c-3.991,7.554-13.969,16.154-15.868,19.067-3.917,6.01-18.348,29.455-18.117,31.414s3.936,2.512,6.356,10.232c.447,1.424-.525,3.36-.737,6.5,0,0-8.568,10.715-8.425,14.4s-1.539,4.148-1.539,4.148l-1.3,9.6v11.9l-6.913,6.144-4.028,1.281-6.554,2.088s-6.757,0-7.563-2.314a7.291,7.291,0,0,1-1.037-3.858c.028-.793-.092-2.014-.041-3.364.078-2.314.65-5.005,3.323-6.508a2.685,2.685,0,0,0,.936-.963,14.78,14.78,0,0,0,1.512-5.591c.963-7.549.516-19.781,2.162-28.164,1.733-8.817,14.476-64.39,30.99-98.006.29-.59.581-1.175.876-1.751.184-.369.373-.733.562-1.1s.373-.719.562-1.074.378-.71.567-1.06c.175-.332.355-.659.535-.982.207-.373.415-.747.622-1.111.378-.664.751-1.309,1.134-1.945,1.194-2.009,2.406-3.876,3.632-5.581.189-.258.373-.516.562-.765.309-.424.622-.83.936-1.226.1-.134.207-.263.309-.392s.212-.258.313-.387.212-.253.313-.378c.313-.378.627-.742.945-1.092.106-.115.207-.23.313-.346q.221-.242.442-.47c.161-.18.332-.355.507-.525,0,0,0-.009.009-.009.157-.161.313-.318.475-.47s.313-.3.47-.442c.184-.175.373-.346.562-.512.244-.217.493-.424.737-.622.1-.083.2-.157.295-.235a.494.494,0,0,1,.051-.042c.147-.115.295-.23.442-.336s.313-.23.47-.341c.106-.074.212-.147.318-.217s.212-.143.323-.212c.083-.055.166-.106.249-.161.383-.235.765-.452,1.152-.65q.256-.131.512-.249a.939.939,0,0,1,.1-.046c.189-.088.378-.171.567-.244.272-.111.548-.212.834-.313.2-.074.406-.148.618-.212.189-.065.383-.125.581-.184.074-.023.148-.046.221-.065.207-.06.415-.12.627-.175,17.772-4.682,48.074,6.356,61.44,10.96a42.17,42.17,0,0,0,6.273,1.894,11.232,11.232,0,0,0,6.2-.926,3.221,3.221,0,0,0,.484-.3S285.362,558.594,287.818,571.651Z" transform="translate(-132.393 -271.051)" fill="#a99fa5"/>
        <path id="Path_507" data-name="Path 507" d="M491,182.839c.461-.153,9.1-1.786,19.011,11.868,0,0-6.279-7.144-8.7-7.547,0,0,7.221,6.241,7.854,8.757,0,0-5.531-6.683-8.277-6.76,0,0,12.847,12.348,15.766,23.793s-1.306,24.12-1.306,24.12l-10.446.384-2.612-32.185Z" transform="translate(-325.725 -77.804)" fill="#08090a"/>
        <path id="Path_508" data-name="Path 508" d="M423.4,168.017s-4.609-16.07-16.438-11.845-19.895,6.452-29.228,28.459-3.341,21.777-4.263,35.718-1.152,23.159-7.72,29.151,4.263,13.135,2.65,18.2-4.785,3.8-4.785,3.8,5.361,6.683,13.2-2.189,25.809-43.784,35.373-41.594,14.287-8.526,14.287-8.526L422.9,168.04Z" transform="translate(-257.05 -63.12)" fill="#08090a"/>
        <path id="Path_509" data-name="Path 509" d="M390.208,437.7s4.839,1.267,1.267,10.831-9.448,10.716-9.448,10.716,8.872,1.5,14.518-7.835,2.074-23.159,2.074-23.159" transform="translate(-266.976 -210.184)" fill="#08090a"/>
        <path id="Path_510" data-name="Path 510" d="M438.566,451.575s-7.259-2.074-7.72-12.9,1.5-16.477,1.5-16.477-7.329,9.806-2.881,20.855c0,0-4.094.115-4.005-9.563,0,0-3.055,9.416,3.429,12.789,0,0-7.515,1.959-8.667-10.024s3.367-6.8.717-30.072,13.481-12.559,13.481-12.559l12.674,41.364Z" transform="translate(-287.463 -190.187)" fill="#08090a"/>
        <path id="Path_511" data-name="Path 511" d="M511.421,248.593c-.544,8.568-1.991,18.822-3.337,27.123-.83,5.116-1.627,9.49-2.148,12.264-.138.747-.258,1.383-.355,1.88-.166.848-.258,1.313-.258,1.313s-1.3,14.739-3.291,24.864a43.107,43.107,0,0,1-1.931,7.245c-3.06,7.434-7.6,17.32-8.683,21.661-.7,2.77-1.286,5.826-1.618,7.669-.194,1.046-.3,1.7-.3,1.7a15.774,15.774,0,0,0-3.023,1.553,45.61,45.61,0,0,0-4.922,3.558c-.014.009-.023.023-.037.032A93.963,93.963,0,0,0,470.371,370.5a180.817,180.817,0,0,0-11.748,15.154l-.373.525a76.668,76.668,0,0,0-9-.217c-4.507.166-9.674.493-15.08.88-.088-.364-.129-.576-.129-.576s-2.2-11.568-6.812-19.79a18.718,18.718,0,0,0-8.314-7.448c-3.65-1.793-6.881-2.378-7.028-2.853-.189-.6,1.53-2.779,3.576-5.319.9-1.12,1.862-2.3,2.756-3.457,2.917-3.765,12.292-11.6,13.9-18.053,1.277-5.111,1.083-11.7.281-17.454a58.639,58.639,0,0,0-1.894-8.89c-.065-.207-.129-.419-.2-.622a97.878,97.878,0,0,0-9.328-20.578l-.088-.244-1.231-3.443-.9-2.507L409,248.312s6.051-9.683,26.413-15.536c.157-.046.313-.088.47-.134l6.148-2-9.374-9.835-1.687-3.991s-.157,6.452-5.378,4.148-5.531-9.066-4.918-13.213-8.3-25.348,5.839-31.8c.608-.277,1.208-.53,1.793-.756,13.084-5.107,21.256,1.447,24.786,6.6,3.687,5.374,9.42,13.329,9.715,21.468a25.564,25.564,0,0,1-.281,5.056,15.383,15.383,0,0,1-.359,1.687c-.1.341-.166.516-.166.516l7.835,20.587s1.1-.327,2.88-.82c2.42-.668,6.107-1.645,10.02-2.53,3.079-.7,6.3-1.337,9.158-1.733.387-.051.765-.1,1.138-.143a42.525,42.525,0,0,1,7.558-.493,9.275,9.275,0,0,1,1.332.184l.06.014c2.074.442,3.729,1.576,5.766,3.885.023.023.046.051.069.078.369.419.747.876,1.138,1.373.318.392.641.811.977,1.258a4.421,4.421,0,0,1,.512.894s.009.009.009.014C511.712,235.9,511.859,241.7,511.421,248.593Z" transform="translate(-281.517 -72.762)" fill="#a99fa5"/>
        <path id="Path_512" data-name="Path 512" d="M449.1,265.287l-8.142-15.055s-10.946-11.561-12.636-17.706-12.1-12.405-13.173-21.316-8.757,23.581-7.835,33.759-4.3,24.619,8.449,31.532S449.1,265.287,449.1,265.287Z" transform="translate(-280.443 -92.349)" fill="#08090a"/>
        <path id="Path_513" data-name="Path 513" d="M487.178,188.639a7.114,7.114,0,0,0-2.163.332,10.287,10.287,0,0,0-1.952.82,6.064,6.064,0,0,0-.848.619,5,5,0,0,1-.866.561,10.008,10.008,0,0,1-1,.438,5.4,5.4,0,0,1-1.183.348l-.132-.128a3.906,3.906,0,0,1,.46-1.2,4.675,4.675,0,0,1,.782-.956,5.21,5.21,0,0,1,2.214-1.04,10.957,10.957,0,0,1,1.189-.276,5.616,5.616,0,0,1,.6-.069,5.264,5.264,0,0,1,.6-.028,6.456,6.456,0,0,1,2.335.4Z" transform="translate(-319.276 -80.692)" fill="#08090a"/>
        <path id="Path_514" data-name="Path 514" d="M318.594,724.655a30.336,30.336,0,0,0-4.762,23.658c3.072,13.519,7.835,23.659,9.525,33.644s-4.3,17.513-6.759,23.659,1.788,16.9,1.788,16.9h7.737s-.922-6.606,4.609-21.047,2.919-19.972,2.151-30.418-8.186-21.663,1.29-33.644,4.7-20.74,4.7-20.74Z" transform="translate(-229.825 -365.676)" fill="#10100e"/>
        <path id="Path_515" data-name="Path 515" d="M690.2,724.655a30.338,30.338,0,0,1,4.763,23.658c-3.073,13.519-7.835,23.659-9.525,33.644s4.3,17.513,6.76,23.659-1.788,16.9-1.788,16.9h-7.737s.922-6.606-4.609-21.047-2.919-19.972-2.151-30.418,8.186-21.663-1.29-33.644-4.7-20.74-4.7-20.74Z" transform="translate(-421.537 -365.676)" fill="#10100e"/>
        <path id="Path_516" data-name="Path 516" d="M713.093,733.792s-.166,0-.493.009c.1-.318.207-.664.318-1.042Z" transform="translate(-445.194 -374.352)" fill="#08090a"/>
        <path id="Path_517" data-name="Path 517" d="M315,668.577s-6.3,10.447-3.073,20.893l.153,6.606s18.282-6.145,43.016-2.919,21.815,5.991,50.082,5.991,34.413-6.913,56.074-6.913,35.334-.307,35.334-.307l-1.229-7.221s5.531-14.748,2.919-25.963-52.386,7.067-53.923,7.221-91.254-2.151-92.329-1.844S315,668.577,315,668.577Z" transform="translate(-228.686 -332.488)" fill="#434342"/>
        <path id="Path_518" data-name="Path 518" d="M495.356,730.336l1.231,7.222s-13.674.309-35.336.309-27.8,6.913-56.075,6.913-25.348-2.765-50.079-5.991-43.018,2.917-43.018,2.917l-.152-6.6a23.253,23.253,0,0,1-.447-11.172c.12.571.267,1.148.447,1.724l.152,6.6s18.283-6.144,43.018-2.917,21.813,5.992,50.079,5.992,34.414-6.913,56.075-6.913c19.269,0,32.216-.244,34.842-.3C495.665,729.521,495.356,730.336,495.356,730.336Z" transform="translate(-228.687 -369.591)" fill="#10100e"/>
        <path id="Path_519" data-name="Path 519" d="M313.863,627.14c-2.218,1.581-2.931,4.982-3.238,7.9s-.036,12.444,2.345,15.055,4.686,7.067,24.811,4.3,48.085-3.073,65.906-2.612,46.068,3.927,66.828-2.611c6.058-1.908,15.209-.461,24.734-2.919s9.986-28.133,0-28.267-12.692,1.048-23.966,4.455c-7.494,2.264-14.739,4.416-24.042,5.146-16.27,1.278-32.465-2.611-51.081-1.92-17.313.643-44.309,3.659-57.456,3.072C320.786,627.943,316.411,625.324,313.863,627.14Z" transform="translate(-228.426 -312.471)" fill="#eddde7"/>
        <path id="Path_520" data-name="Path 520" d="M679.166,821.5s-1.306,2.3-.691,12.521,2.765,11.138,2.458,23.735-.508,19.049-.508,19.049h3.2l2.919-29.035s-1.229,12.941-.615,18.261-1.383,19.3-1.383,19.3.691,8.526,21.354,6.222l5.416-21.808L690.918,830.41Z" transform="translate(-426.708 -422.193)" fill="#10100e"/>
        <path id="Path_521" data-name="Path 521" d="M624,699.365a4.452,4.452,0,0,1-2.834,4.263c-3.623,1.484-9.7-.438-11.992-1.88-3.3-2.074-8.218-6.761-8.83-20.509-.313-7.024-.949-11.061-1.724-13.743a22.322,22.322,0,0,0-2.41-5.36c0-.009-.009-.014-.014-.023-1.691-3.074-5.918-3-4.918-9.831l5.176-9.674,1.968-3.687.23-.429s-1.88-32.068-6.6-43.59-9.3-9.637-10.683-40.4a9.5,9.5,0,0,1-1.866,1.9c-3.033,2.53-10.536,7.245-27.777,12-25.053,6.909-35.861-1.627-35.861-1.627l8.254-19.057,1.6-3.705L543.232,533.3l1.816,1.719.466.443.124.12.631-.511c4.636-3.738,33.635-26.731,44.779-26.736,1.115,0,2.175.042,3.18.134,12.167,1.069,16.707,8.941,21.247,31.363.051.244.1.484.152.733.152.737.313,1.493.479,2.281.074.341.143.687.217,1.037,0,.023.009.046.014.064.074.36.152.728.226,1.1.069.336.138.677.207,1.028s.134.687.2,1.046q.076.4.152.816c.069.373.134.756.2,1.148.134.793.272,1.622.4,2.5.037.24.069.479.106.724a.359.359,0,0,1,.009.069c.023.138.041.276.06.419s.041.281.06.424c.037.286.078.576.115.871.018.157.042.313.06.47.037.295.074.59.106.889a.363.363,0,0,1,.009.065c.037.29.069.585.1.88.041.369.078.747.12,1.129.014.115.023.235.037.355q.048.5.1,1.009c.046.521.1,1.051.138,1.595.028.295.051.59.074.89.046.581.088,1.18.129,1.793,0,.051,0,.1.009.152q.035.539.069,1.092l.042.747c.023.392.046.793.065,1.2.009.221.023.443.032.668.77,16.513-.318,35.681,0,55.149.143,8.766.373,17.384.631,25.252q.055,1.611.111,3.18c.645,18.772,1.41,32.561,1.41,32.561S624.383,691.839,624,699.365Z" transform="translate(-339.128 -253.357)" fill="#a99fa5"/>
        <path id="Path_522" data-name="Path 522" d="M511.443,339.359c-1.438,8.84-2.761,15.458-2.761,15.458s-1.3,14.739-3.291,24.864c-5.83,6.849-13.78,17.251-15.49,24.8-.982,4.332-.76,9.789-.065,15.034-4.609,2.83-14.315,10.444-27.856,29.787l-.373.525a76.668,76.668,0,0,0-9-.217c-4.507.166-9.674.493-15.08.88-.088-.364-.129-.576-.129-.576s-2.2-11.568-6.812-19.79-15.071-9.434-15.343-10.3c-.189-.6,1.53-2.779,3.576-5.319a63.042,63.042,0,0,1,16.582-7.144c14.748-4.033,5.42-25.994.36-31.819a58.641,58.641,0,0,0-1.894-8.89c-.065-.207-.129-.419-.2-.622l0,0s-2.765-17.089,9.1-30.916-10.291-30.072-10.291-30.072l10.983-5.185s3.747,11.752,14.891,8.3c10.31-3.194,14.55-4.323,17.716-14.223,2.42-.668,6.107-1.645,10.02-2.53-2.051,3.641-5.641,10.66-5.641,15.025,0,6.107,9.526,16.822,17.937,24.888C499.557,332.432,510.756,337.543,511.443,339.359Z" transform="translate(-284.875 -136.406)" fill="#060709"/>
        <path id="Path_523" data-name="Path 523" d="M704.318,906.753s-3.073-6.375,3-8.987,11.445-3.533,14.133.461-3.149-12.059-3.149-12.059-4.3,3.994-9.909,2.765-15.056-2.765-15.056-2.765,3.457,22.046,7.835,21.695S704.318,906.753,704.318,906.753Z" transform="translate(-434.807 -457.057)" fill="#10100e"/>
        <path id="Path_524" data-name="Path 524" d="M713.894,803.359c-2.982-.853-8.655-1.917-12.877.682-5.991,3.687-8.254,5.429-8.065,11.9a17.286,17.286,0,0,1-.341,4.309,22.324,22.324,0,0,0-2.41-5.36,27.718,27.718,0,0,0,1.443-11.006,49.387,49.387,0,0,0-1.2-8.522l1.968-3.687,1.364,13.743s9.254-9.844,20.007-5.245Q713.839,801.789,713.894,803.359Z" transform="translate(-433.118 -406.117)" fill="#10100e"/>
        <path id="Path_525" data-name="Path 525" d="M474.8,207.548s-.622.078-1.562.29c-2.461.553-7.093,2.019-8.347,5.355-1.728,4.609-10.37,7.72-17.053,6.8,0,0,9.1,6.913,11.061,10.255,1.24,2.115-6.577,1.323-12.416.364.157-.046.313-.088.47-.134l6.148-2-9.374-9.835-1.687-3.991s-.157,6.452-5.378,4.148-5.531-9.066-4.918-13.213-8.3-25.348,5.839-31.8c.608-.277,9.784-4.229,10.37-4.455.111.784-4.494,4.839-8.729,7.377-5.755,3.448-3.572,19.546.217,25.537,0,0,11.273,10.139,16.8,7.489s4.153-7.167,7.955-6.867,1.945,2.028,6.849,2.719a13.122,13.122,0,0,1,2.549.562C475.473,206.806,474.8,207.548,474.8,207.548Z" transform="translate(-292.588 -70.597)" fill="#040405" opacity="0.15"/>
        <path id="Path_526" data-name="Path 526" d="M471.89,210.131s-5.194.522-4.83,4.612-10.12,5.761-13.519,5.876-10.312-9.506-11.464-13.6-3.284-16.016,0-20.567,8.7-5.819,11.58-2.708.576,6.683,5.156,8.987,2.622,3.111,2.622,3.111-3.482,2.266-2.374,5.482,1.971-.3,1.971-.3a1.368,1.368,0,0,0,1.555.682c1.21-.164,2.42-.385,2.42-.385a17.823,17.823,0,0,1,3.111,2.871c.518.922-4.436,1.44-4.436,3.975s3.38.4,3.38.4S471.919,205.806,471.89,210.131Z" transform="translate(-298.406 -77.447)" fill="#fff" opacity="0.2"/>
        <path id="Path_527" data-name="Path 527" d="M480.437,233.352s2.88-5.041,6.654-6.366a8.728,8.728,0,0,1,6.423,0s-2.938-2.881-6.539-2.132a8.281,8.281,0,0,0-1.671,1.008c-.5.33-1.176.37-1.616.828C481.741,228.714,480.416,231.713,480.437,233.352Z" transform="translate(-320.03 -100.463)" fill="#08090a"/>
        <path id="Path_528" data-name="Path 528" d="M483.978,232.3c2.105-1.412,3.883-3.525,8.3-3.428s-4.638-1.5-4.638-1.5-6.475,4.608-6.654,6.51S482.579,233.238,483.978,232.3Z" transform="translate(-320.319 -101.888)" fill="#08090a"/>
        <path id="Path_529" data-name="Path 529" d="M443.146,208.449a12.732,12.732,0,0,1,1.229-2.878,14.52,14.52,0,0,1,.876-1.331,7.365,7.365,0,0,1,.508-.624c.181-.2.347-.416.548-.6s.385-.389.575-.592l.618-.566a3.69,3.69,0,0,1,.694-.478,3.269,3.269,0,0,1,.777-.336c.275-.077.551-.147.828-.2a7.034,7.034,0,0,1,.858-.044c.143,0,.284,0,.425.017l.429.085a4.436,4.436,0,0,1,.831.28l.023.23a27.453,27.453,0,0,1-2.445,1.733c-.2.1-.377.24-.574.343s-.412.177-.61.289l-.634.285c-.2.112-.4.236-.6.361s-.381.276-.574.416a6.168,6.168,0,0,0-.556.451,13.232,13.232,0,0,0-1.078.981,17.935,17.935,0,0,0-1.936,2.274Z" transform="translate(-299.926 -87.56)" fill="#08090a"/>
        <path id="Path_530" data-name="Path 530" d="M323.859,561.59c-1.019.065-18.371,0-19.32-.456a26.39,26.39,0,0,0-4.595-1.618c-7.734-2.1-15.582-3.761-23.422-5.42-5.724-1.208-11.49-2.424-17.338-2.443s-11.854,1.24-16.642,4.595c-3.729,2.613-6.526,6.333-9.964,9.323s-8.024,5.3-12.444,4.2a9.186,9.186,0,0,1-3.263-1.567c.29-.59.581-1.175.876-1.751.184-.369.373-.733.562-1.1s.373-.719.562-1.074.378-.71.567-1.06c.175-.332.355-.659.535-.982.207-.373.415-.747.622-1.111.373-.664.751-1.309,1.134-1.945,1.194-2.009,2.406-3.876,3.632-5.581.189-.258.373-.516.562-.765.309-.424.622-.83.936-1.226.1-.134.207-.263.309-.392s.212-.258.313-.387.212-.253.313-.378c.313-.378.627-.742.945-1.092.106-.115.207-.23.313-.346q.221-.242.442-.47c.161-.18.332-.355.507-.525,0,0,0-.009.009-.009.157-.161.313-.318.475-.47s.313-.3.47-.442c.184-.175.373-.346.562-.512.244-.217.493-.424.737-.622.1-.083.2-.157.295-.235a.49.49,0,0,1,.051-.042c.147-.115.295-.23.442-.336s.313-.23.47-.341c.106-.074.212-.147.318-.217s.212-.143.323-.212c.083-.055.166-.106.249-.161.383-.235.765-.452,1.152-.65q.256-.131.512-.249a.94.94,0,0,1,.1-.046c.189-.088.378-.171.567-.244.272-.111.548-.212.834-.313.2-.074.406-.148.618-.212.189-.065.383-.125.581-.184.074-.023.147-.046.221-.065.207-.06.415-.12.627-.175,17.772-4.682,48.074,6.356,61.44,10.96a42.169,42.169,0,0,0,6.273,1.894,11.232,11.232,0,0,0,6.2-.926C318.093,556.6,323.319,559.368,323.859,561.59Z" transform="translate(-177.936 -271.051)" fill="#040405" opacity="0.15"/>
        <path id="Path_531" data-name="Path 531" d="M192.858,853.88a1.8,1.8,0,0,1-.728.636A1.751,1.751,0,0,1,192.858,853.88Z" transform="translate(-164.598 -439.65)" fill="#55325d"/>
        <path id="Path_532" data-name="Path 532" d="M268.628,598.67c-9.513-.1-18.32-.281-22.2-.627-10.37-.922-28.8-6.452-28.8-6.452s-.6,10.992-4.839,19.011c-3.175,6.014-10.149,12.688-13.822,16.633a21.539,21.539,0,0,0-2.046,2.433c-3.793,5.826-17.467,28.021-18.1,31.169a.809.809,0,0,0-.018.244c.088.747.682,1.291,1.516,2.1a17.491,17.491,0,0,1,4.839,8.13,9.757,9.757,0,0,1,0,4.424,5.231,5.231,0,0,1-.733,2.074,28.331,28.331,0,0,0-6.291,6.176c-.106.138-.212.277-.318.419a37.049,37.049,0,0,0-3.641,5.968v0a39.015,39.015,0,0,0-2.346,6.061c-1.341,4.549-.433,12.13-.539,15.757a5.815,5.815,0,0,1-.438-.392A38.819,38.819,0,0,1,159.5,685.675a46.27,46.27,0,0,1,.4-7.236c.171-1.3.387-2.586.631-3.871.724-3.742,1.728-7.452,2.728-11.13,6.328-23.274,12.951-47.166,27.409-66.473-1.106,7.688-2.019,16.246,2.493,22.569a60.3,60.3,0,0,1,5.014-21.855c-3.222-9.052-1.986-20.4,3.885-28s16.707-11.333,25.708-7.978c5.12,1.908,9.241,5.752,13.213,9.5q11.815,11.137,23.62,22.279C266.209,595,267.877,596.615,268.628,598.67Z" transform="translate(-146.999 -281.464)" fill="#040405" opacity="0.15"/>
        <path id="Path_533" data-name="Path 533" d="M192.022,855.26c-.032.041-.06.088-.092.138l.014-.106S191.971,855.283,192.022,855.26Z" transform="translate(-164.49 -440.394)" fill="#10100e"/>
        <path id="Path_534" data-name="Path 534" d="M171.105,831.175c.007,11.855,1.709,24.254,1.344,24.868a2.513,2.513,0,0,1-2.862,1.306c-.641-.2-1.091-5.258-2.17-10.389-1.443-6.865-3.457-13.941-3.457-13.941s-4.033-2.881-3.341,18.55c.3,9.43,2.742,14.492,1.613,17.974-1.437,4.431-6.568,5.876-6.568,5.876S143.8,879.107,140.8,876s-3.8-12.1-3.8-12.1,19.6-.7,22.045-13.135c.529-2.694-.883-11.853.653-17.052,3.843-13.011,12.6-18.627,12.6-18.627S171.1,825.677,171.105,831.175Z" transform="translate(-134.877 -418.734)" fill="#10100e"/>
        <path id="Path_535" data-name="Path 535" d="M302.37,367.176c-1.719,2.862-3.885,6.153-6.627,9.9-4.618,6.328-13.73,18.113-20.279,22.583-11.679,7.969-27.169,15.043-34.912,18.9a28.646,28.646,0,0,0-5.185,3.457,6.586,6.586,0,0,0-.576,5.646c.742,1.761.747,6.36.378,10.42a30.363,30.363,0,0,1-1.069,6.231c-1.152,3.281,0,3.917,0,3.917s.17,4.2-4.033,3.337-2.3-10.771-2.3-10.771-.977-2.3-4.839,1.092-20.163,27.519-23.56,21.827c0,0-1.152-.046.862-3.272,1.553-2.493,6.955-10.683,9.337-14.292-2.35,3.489-7.711,11.319-10.8,14.656-4.033,4.355-6.95,2.535-6.8.5.152-2,8.936-10.706,9.213-10.978-.194.157-6.139,5.01-8.48,6.522-2.383,1.539-4.148-.461-3.457-2,.682-1.512,9.065-9.388,9.328-9.637-.207.124-5.872,3.563-7.757,3.222-.465-.088-.714-.286-.793-.558-.244-.834,1.12-2.36,2.484-3.318.71-.5,2.346-1.673,4.263-3.12.41-.309.83-.631,1.258-.959a67.6,67.6,0,0,0,7.268-6.254c3.226-3.457,11.752-14.172,14.287-17.513s1.728-3.111,6.222-5.876,20.74-18.55,29.151-25.694,9.794-5.531,13.942-10.37,5.185-8.065,9.563-14.979,11.983-26.04,11.983-26.04l1.544-1.917,6.554,7.448,10.337,11.752S309.307,355.621,302.37,367.176Z" transform="translate(-162.96 -158.208)" fill="#a99fa5"/>
        <path id="Path_536" data-name="Path 536" d="M356.9,467.186c-3.609,3.346-8.125,6.079-12.951,6.627-3.65-1.793-6.881-2.378-7.028-2.853-.189-.6,1.53-2.779,3.576-5.318.9-1.12,1.862-2.3,2.756-3.457,2.917-3.765,12.292-11.6,13.9-18.053,1.277-5.111,1.083-11.7.281-17.454a58.645,58.645,0,0,0-1.894-8.89c-.065-.207-.129-.419-.2-.622a97.878,97.878,0,0,0-9.328-20.578l-.088-.244c.014.055.023.115.032.171-.41.682-.843,1.392-1.3,2.12-1.479,2.337-3.235,4.927-5.323,7.784-4.618,6.328-13.73,18.113-20.279,22.583-11.679,7.969-27.169,15.043-34.912,18.9a28.646,28.646,0,0,0-5.185,3.457,6.586,6.586,0,0,0-.576,5.646c.742,1.761.747,6.36.378,10.421a13.63,13.63,0,0,1-1.456-.512,12.454,12.454,0,0,1-6.941-6.927c-2.24-6.028,5.093-11.719,10.208-15.618s12.582-6.805,18.408-9.525c7.867-3.678,10.909-6.889,17.31-12.756,5.074-4.65,8.978-11.868,13.7-16.877q5.835-6.194,11.679-12.384c.714-.76,1.4-1.641,2.134-2.429a8.232,8.232,0,0,1,1.922-1.585c2.4-1.36,6.019-1.774,8.678-2.549q5.185,15.161,10.365,30.317c2,5.844,4.01,11.748,4.595,17.9A40.13,40.13,0,0,1,356.9,467.186Z" transform="translate(-206.553 -187.547)" fill="#040405" opacity="0.15"/>
        <path id="Path_537" data-name="Path 537" d="M293.042,331.84l-1.544,1.917s-7.6,19.126-11.983,26.04-5.415,10.139-9.563,14.979-5.531,3.226-13.942,10.37-24.657,22.929-29.151,25.694-3.687,2.535-6.222,5.876-11.061,14.057-14.287,17.513a70.3,70.3,0,0,1-7.644,6.54c-.3.227-.595.456-.883.672-1.917,1.447-3.553,2.618-4.263,3.12-1.364.959-2.728,2.484-2.484,3.318a25.233,25.233,0,0,0,3.1-2.705,30.6,30.6,0,0,1,2.945-2.2q1.5-1.037,3.007-2.07c2.411-.9,4.494-2.743,6.6-4.134,3.549-2.35,6.839-4.323,9.333-7.89,3.36-4.812,5.535-10.531,9.808-14.55,4.212-3.968,13.4-9.942,17.856-13.631,10.8-8.938,25.566-16.612,34.005-26.42s8.975-12.766,15.852-23.726a67.444,67.444,0,0,0,6.019-11.264Z" transform="translate(-164.015 -158.208)" fill="#fff" opacity="0.2"/>
        <path id="Path_538" data-name="Path 538" d="M579.5,591.949c-3.033,2.53-10.536,7.245-27.777,12-25.053,6.909-35.861-1.627-35.861-1.627l11.03-14.416c3.9-5.466,10.734-12.508,13.4-13.637-1.88,2.544-3.811,5.176-4.558,8.254s-.023,6.738,2.567,8.558c2.327,1.641,5.438,1.415,8.268,1.12q13.619-1.417,27.243-2.83a9.4,9.4,0,0,1,3.254.046,3.173,3.173,0,0,1,2.355,2.046A2.967,2.967,0,0,1,579.5,591.949Z" transform="translate(-339.128 -288.907)" fill="#040405" opacity="0.15"/>
        <path id="Path_539" data-name="Path 539" d="M560.661,426.115c-.166.848-.258,1.314-.258,1.314s-1.3,14.739-3.291,24.864a43.1,43.1,0,0,1-1.931,7.245c-3.06,7.434-7.6,17.32-8.683,21.661-.7,2.77-1.484,6.926-1.815,8.769-.913.71-2.222,1.439-3.125,2.154-1.89,1.489-3.157,1.908-4.922,3.558-.014.009-.023.023-.037.032-1.378,1.3-3.894,1.825-5.116,3.268-1.185,1.4-7.2,6.117-9.5,4.749-21.755-12.912-4.4.132-1.848,1.646,2.139,1.27,3.491-8.28,3.477-10.358a62.956,62.956,0,0,1,1.4-13.43c2.148-10.213,6.489-19.85,11.522-28.994,4.766-8.669,10.273-17.1,17.707-23.629C556.038,427.378,558.421,425.853,560.661,426.115Z" transform="translate(-336.596 -209.017)" fill="#040405" opacity="0.15"/>
        <g id="Group_528-2" data-name="Group 528" transform="translate(0.013 295.401)" opacity="0.2">
          <path id="Path_540" data-name="Path 540" d="M172.217,596.05c-.922,7.674-3.816,15.131-6.674,22.38q-2.171,5.524-4.346,11.038-3.215,8.171-6.434,16.338c-3.632,15.891-9.9,31.349-12.494,47.263-.194,1.184-.369,2.374-.516,3.563a79.889,79.889,0,0,0-.664,11.075c.074,5.789.825,11.8-.585,17.32a19.78,19.78,0,0,1-.968,2.881,19.393,19.393,0,0,1-1.572,2.945,29.531,29.531,0,0,1-5.54,6.176l0,0c.078-2.314.65-5.005,3.323-6.508a2.26,2.26,0,0,0,.659-.576,4.146,4.146,0,0,0,.277-.387,13.59,13.59,0,0,0,1.438-5.047c.028-.18.051-.359.074-.544.959-7.5.521-19.624,2.134-28,0-.055.018-.106.028-.161.147-.742.369-1.816.668-3.18,3.235-14.84,15.2-64.039,30.321-94.826C171.632,597.211,171.922,596.626,172.217,596.05Z" transform="translate(-132.42 -596.05)" fill="#fff"/>
        </g>
        <path id="Path_541" data-name="Path 541" d="M162,879.794s-5.913,20.366-10.941,7.425c-.129-.332-.258-.691-.387-1.069-2.452-7.231-5.484-10.789-8.052-12.559a10.606,10.606,0,0,0-1.562-.9,4.179,4.179,0,0,0,.277-.387,13.591,13.591,0,0,0,1.438-5.047,9.212,9.212,0,0,0,2.387.512,14.54,14.54,0,0,0,1.516.046c10.831-.23,14.716-7,14.716-7Z" transform="translate(-137.065 -443.386)" fill="#10100e"/>
        <path id="Path_542" data-name="Path 542" d="M211.33,851.553l1.069-.843A6.154,6.154,0,0,1,211.33,851.553Z" transform="translate(-174.949 -437.941)" fill="#55325d"/>
        <path id="Path_543" data-name="Path 543" d="M214.065,849.77a.737.737,0,0,0,.06.06l-.475.373A4.616,4.616,0,0,0,214.065,849.77Z" transform="translate(-176.2 -437.434)" fill="#55325d"/>
        <path id="Path_544" data-name="Path 544" d="M194.384,737.719a.808.808,0,0,0-.018.244c.088.747.682,1.29,1.516,2.1a17.491,17.491,0,0,1,4.839,8.13,9.757,9.757,0,0,1,0,4.424,5.231,5.231,0,0,1-.733,2.074,28.332,28.332,0,0,0-6.291,6.176c-4.512-9.25-6.475-19.841-4.659-29.957,1.926-10.766,8.356-20.855,17.836-26.312,2.291-1.318,5.337-2.309,7.42-.687.083.065.161.134.24.2a21.525,21.525,0,0,0-2.046,2.433C208.69,712.375,195.016,734.571,194.384,737.719Z" transform="translate(-162.566 -358.345)" fill="#040405" opacity="0.15"/>
        <path id="Path_545" data-name="Path 545" d="M172.462,801.819a5.134,5.134,0,0,0,.811,1.779l-4.148,5.415-.3-1.221v0l-2.807-11.218a53.437,53.437,0,0,1-11.462-.719A20.775,20.775,0,0,1,151,794.86a12.077,12.077,0,0,1-1.429-.664c0-.055.018-.106.028-.161.147-.742.369-1.816.668-3.18a11.921,11.921,0,0,0,1.249.442,22.353,22.353,0,0,0,3.669.682,72.652,72.652,0,0,0,12.444-.018l5.844-13.711a.808.808,0,0,0-.018.244c.088.747.682,1.291,1.516,2.1-.76,3.01-2.032,8.429-2.733,13.324A18.757,18.757,0,0,0,172.462,801.819Z" transform="translate(-141.653 -398.876)" fill="#10100e"/>
        <path id="Path_546" data-name="Path 546" d="M194.733,609.973a3.788,3.788,0,0,0,.994-2.348,1.075,1.075,0,0,0-.385-1.02,1.111,1.111,0,0,0-1.007.087,5.214,5.214,0,0,0-2.776,3.341,2.138,2.138,0,0,0-.078.884,1,1,0,0,0,.471.723.806.806,0,0,0,1.1-.452A7.648,7.648,0,0,0,194.733,609.973Z" transform="translate(-164.238 -306.291)" fill="#08090a"/>
        <path id="Path_547" data-name="Path 547" d="M186.229,598.273c.671.033,1.492-.6,2.15-.735a2.708,2.708,0,0,0,1.692-1,1.519,1.519,0,0,0-1.087-2.5,2.832,2.832,0,0,0-1.316.214,3.392,3.392,0,0,0-2.274,3.04,1.269,1.269,0,0,0,.194.706.635.635,0,0,0,.642.277" transform="translate(-160.966 -299.556)" fill="#08090a"/>
        <path id="Path_548" data-name="Path 548" d="M191.508,575.807a6.1,6.1,0,0,0-3.045,1.925,2.411,2.411,0,0,0-.479.776,1.109,1.109,0,0,0,.052.889,1.417,1.417,0,0,0,1.509.484,3.56,3.56,0,0,0,2.563-1.983,1.727,1.727,0,0,0,.165-1.155c-.155-.567-.183-.856-.766-.935" transform="translate(-162.327 -289.735)" fill="#08090a"/>
        <path id="Path_549" data-name="Path 549" d="M208.715,608.4c.511-.963,2.239-3.968,3.264-4.34.439-.159.777-.494,1.11-.166a1.542,1.542,0,0,1,.295,1.164,6.081,6.081,0,0,1-.782,3.466c-.77,1.073-2.079,2.694-3.311,2.219C209.291,610.743,208.2,609.363,208.715,608.4Z" transform="translate(-173.466 -304.803)" fill="#08090a"/>
        <path id="Path_550" data-name="Path 550" d="M279.423,583.388c-.16-1.079-.554-4.523.051-5.431.259-.388.332-.858.795-.792a1.54,1.54,0,0,1,.928.761,6.082,6.082,0,0,1,1.429,3.254c.018,1.321-.074,3.4-1.348,3.751C281.277,584.931,279.583,584.466,279.423,583.388Z" transform="translate(-211.512 -290.464)" fill="#08090a"/>
        <path id="Path_551" data-name="Path 551" d="M577.751,566.23l.466.442a15.39,15.39,0,0,0-1.7,1Z" transform="translate(-371.831 -284.572)" fill="#040405" opacity="0.15"/>
        <path id="Path_552" data-name="Path 552" d="M659.572,699.365a4.452,4.452,0,0,1-2.834,4.263c-2.94-4.434-3.844-10.208-4.452-15.352-3.263-27.482-2.9-55.25-4.355-82.885-1.111-21.141-3.341-42.442-8.927-62.795-1.986-.521-9.665-8.171-14.4-12.757-4.185-4.051-8.522,5.554-15.117,4.839-6.208-.673-10.315-5.77-15.647-4.148a78.4,78.4,0,0,0-12,4.535c4.636-3.738,33.635-26.731,44.779-26.736,1.115,0,2.175.042,3.18.134,12.167,1.069,16.707,8.941,21.247,31.363.051.244.1.484.152.733.152.737.313,1.493.479,2.281.074.341.147.687.217,1.037,0,.023.009.046.014.064.078.36.152.724.226,1.1.069.336.138.677.207,1.028s.134.687.2,1.046q.076.4.152.816c.069.373.134.756.2,1.148.134.793.272,1.622.4,2.5.037.24.074.479.106.724a.359.359,0,0,1,.009.069c.023.138.042.276.06.419s.041.281.06.424c.037.286.078.576.115.871.018.157.041.313.06.47.037.295.074.59.106.889a.358.358,0,0,1,.009.065c.032.29.069.585.1.88.041.369.078.747.12,1.129.014.115.023.235.037.355q.048.5.1,1.009c.046.521.1,1.051.138,1.595.028.295.051.59.074.89.041.581.088,1.18.129,1.793,0,.051,0,.1.009.152q.034.539.069,1.092l.041.747c.023.392.046.793.065,1.2.009.221.023.443.032.668.77,16.513-.318,35.681,0,55.149.143,8.766.373,17.384.631,25.252q.055,1.611.111,3.18c.645,18.772,1.41,32.561,1.41,32.561S659.955,691.839,659.572,699.365Z" transform="translate(-374.699 -253.357)" fill="#040405" opacity="0.15"/>
        <path id="Path_553" data-name="Path 553" d="M667.567,397.174a21.6,21.6,0,0,1-3.59.93s-7.273.642-11.347-.432c0,0,6.858,6.922,10.545,8s1.134,3.987-.479,3.835-10.794-4.263-12.255-6.033,4.341,7.259,10.255,9.95c3.7,1.678,1.708,2.959-1.112,3.263-2.194.24-6.2-3.018-8.1-4.142a13.452,13.452,0,0,1-3.919-3.195s6.993,8.328,6.473,8.95c-.961,1.151-6.913-.288-13.114-7.411-3.716-4.269-9.259-7.222-12.9-7.8s-1.5,3.65-2.959,6.531-5.148,5.07-7.6,3.53,2.383-4.609,2.383-4.609-.041-7.641.844-11.135,3.457-11.1,3.033-15.827c-.415-4.669-5.752-2.844-14.633-32.727-.1-.341-.2-.682-.3-1.032-9.065-30.953-8.453-53.384-8.453-53.384l1.862-4.517,1.512-3.659h.037a4.834,4.834,0,0,1,1.332.184l.06.014a12.329,12.329,0,0,1,5.766,3.885c.023.023.046.051.069.078.373.415.756.871,1.138,1.373.493.641.991,1.355,1.489,2.152,0,0,.009.009.009.014a54.162,54.162,0,0,1,5.932,14.453c9.153,33.262,5.839,28.962,13.518,42.1a50.392,50.392,0,0,1,5.719,17.076l.581,7.194a8.61,8.61,0,0,1,1.922,5.531c0,3.457,9.522,10.909,9.522,10.909a35.959,35.959,0,0,0,15.784,3.531C669.99,394.778,668.8,396.049,667.567,397.174Z" transform="translate(-384.657 -133.633)" fill="#a99fa5"/>
        <path id="Path_554" data-name="Path 554" d="M714,569.578a6.1,6.1,0,0,0-3.327-1.383,2.4,2.4,0,0,0-.91.055,1.1,1.1,0,0,0-.7.554,1.416,1.416,0,0,0,.472,1.512,3.561,3.561,0,0,0,3.1.955,1.729,1.729,0,0,0,1.041-.53c.375-.453.594-.642.323-1.164" transform="translate(-443.242 -285.622)" fill="#08090a"/>
        <path id="Path_555" data-name="Path 555" d="M637.581,553.358a6.1,6.1,0,0,0-3.145,1.757,2.41,2.41,0,0,0-.52.749,1.1,1.1,0,0,0,0,.89,1.416,1.416,0,0,0,1.48.565,3.56,3.56,0,0,0,2.668-1.841,1.727,1.727,0,0,0,.228-1.145c-.123-.575-.136-.865-.714-.975" transform="translate(-402.725 -277.633)" fill="#08090a"/>
        <path id="Path_556" data-name="Path 556" d="M743.353,521.042a6.1,6.1,0,0,0-3.6-.156,2.414,2.414,0,0,0-.836.364,1.106,1.106,0,0,0-.465.76,1.416,1.416,0,0,0,.963,1.258,3.56,3.56,0,0,0,3.237-.166,1.728,1.728,0,0,0,.8-.855c.2-.554.338-.807-.1-1.2" transform="translate(-459.131 -260.019)" fill="#08090a"/>
        <path id="Path_557" data-name="Path 557" d="M738.663,546.746a6.1,6.1,0,0,0-3.327-1.382,2.413,2.413,0,0,0-.91.055,1.106,1.106,0,0,0-.7.554,1.417,1.417,0,0,0,.472,1.512,3.56,3.56,0,0,0,3.1.955,1.723,1.723,0,0,0,1.04-.53c.375-.453.595-.642.324-1.164" transform="translate(-456.54 -273.313)" fill="#08090a"/>
        <path id="Path_558" data-name="Path 558" d="M730.163,562.746a6.1,6.1,0,0,0-3.327-1.382,2.418,2.418,0,0,0-.91.055,1.107,1.107,0,0,0-.7.554,1.418,1.418,0,0,0,.472,1.512,3.56,3.56,0,0,0,3.1.955,1.723,1.723,0,0,0,1.04-.53c.375-.453.594-.642.324-1.164" transform="translate(-451.958 -281.939)" fill="#08090a"/>
        <path id="Path_559" data-name="Path 559" d="M661.393,397.125c-1.82.277-11.278-2.426-13.094-2.809-11.637-2.47-13.872-8.409-20.177-18.5s-9.577-21.754-12.1-33.377c-2.4-11.052-4.189-22.27-7.637-33.027-.18-.562-.364-1.125-.553-1.682-1.968-5.807-4.572-11.623-9.1-15.762a20.36,20.36,0,0,0-2.728-2.1,22.528,22.528,0,0,0-7.148-3.023c.387-.051.765-.1,1.138-.143a42.528,42.528,0,0,1,7.558-.493,4.832,4.832,0,0,1,1.332.184l.06.014c2.074.442,3.728,1.576,5.766,3.885.023.023.046.051.069.078.373.415.756.871,1.138,1.373.318.392.641.811.977,1.258a4.423,4.423,0,0,1,.512.894s.009.009.009.014a54.169,54.169,0,0,1,5.932,14.453c9.153,33.262,5.839,28.962,13.518,42.1a50.393,50.393,0,0,1,5.719,17.076l.581,7.194a8.61,8.61,0,0,1,1.922,5.531c0,3.457,9.522,10.909,9.522,10.909s5.1,3.378,14.625,3.457C662.657,394.654,662.624,396,661.393,397.125Z" transform="translate(-378.483 -133.584)" fill="#040405" opacity="0.15"/>
        <path id="Path_560" data-name="Path 560" d="M665.28-42.59a7.136,7.136,0,0,0-2.108-.588,10.322,10.322,0,0,0-2.116-.056,6.093,6.093,0,0,0-1.028.216,4.988,4.988,0,0,1-1.02.155,9.928,9.928,0,0,1-1.088-.011,5.43,5.43,0,0,1-1.221-.169l-.068-.171a3.908,3.908,0,0,1,.915-.907,4.69,4.69,0,0,1,1.106-.549,5.207,5.207,0,0,1,2.445-.036,10.923,10.923,0,0,1,1.2.238,5.511,5.511,0,0,1,.578.185,5.4,5.4,0,0,1,.561.223,6.468,6.468,0,0,1,1.962,1.328Z" transform="translate(-415.02 44.869)" fill="#08090a"/>
        <path id="Path_561" data-name="Path 561" d="M618.207-40.515a12.747,12.747,0,0,1,2.3-2.116,14.522,14.522,0,0,1,1.346-.852,7.4,7.4,0,0,1,.72-.36c.247-.108.488-.236.747-.322s.511-.2.767-.3l.8-.262a3.682,3.682,0,0,1,.83-.149,3.273,3.273,0,0,1,.846.013c.283.043.562.093.837.158a7.062,7.062,0,0,1,.8.313c.129.06.257.12.381.191l.356.254a4.42,4.42,0,0,1,.643.6l-.073.219a27.433,27.433,0,0,1-2.942.573c-.222.014-.443.063-.665.077s-.447-.009-.675.012h-.694c-.232.019-.464.05-.7.082s-.461.094-.694.142a6.306,6.306,0,0,0-.692.183,13.232,13.232,0,0,0-1.386.45,17.9,17.9,0,0,0-2.7,1.275Z" transform="translate(-394.305 44.901)" fill="#08090a"/>
      </g>
    </g>
  </g>
</svg>
