<svg xmlns="http://www.w3.org/2000/svg" width="302" height="402" viewBox="0 0 302 402">
  <g id="bookmark_fill_w" transform="translate(-106 -47.174)">
    <g id="Grupo_2" data-name="Grupo 2">
      <g id="Grupo_1" data-name="Grupo 1">
        <g id="_1" data-name="1">
          <path id="svg_1" d="M393,449.174a14.918,14.918,0,0,1-7.458-2L257,373.464l-128.54,73.71a15,15,0,0,1-22.46-13v-372a15,15,0,0,1,15-15H393a15,15,0,0,1,15,15v372A15,15,0,0,1,393,449.174Zm-136-108a14.918,14.918,0,0,1,7.458,2L378,408.274V77.174H136v331.1l113.54-65.1a14.92,14.92,0,0,1,7.46-2Z" fill="#fff"/>
        </g>
        <rect id="svg_2" width="246" height="297" transform="translate(133 71.347)" fill="#fff" stroke="#222" stroke-linejoin="round" stroke-width="0"/>
        <rect id="svg_4" width="41" height="46" transform="translate(346 364.479)" fill="#fff" stroke="#222" stroke-linejoin="round" stroke-width="0"/>
        <rect id="svg_6" width="41" height="45" transform="translate(306.041 346)" fill="#fff" stroke="#222" stroke-linejoin="round" stroke-width="0" stroke-dasharray="5 2 2 2 2 2"/>
        <rect id="svg_8" width="85" height="34" transform="translate(122 358)" fill="#fff" stroke="#222" stroke-linejoin="round" stroke-width="0"/>
        <rect id="svg_10" width="35" height="28" transform="translate(130 387)" fill="#fff" stroke="#222" stroke-linejoin="round" stroke-width="0"/>
      </g>
    </g>
  </g>
</svg>
