<svg xmlns="http://www.w3.org/2000/svg" width="67.836" height="74.313" viewBox="0 0 67.836 74.313">
  <path id="Trazado_579" data-name="Trazado 579" d="M70.168,72.178a2.135,2.135,0,0,1-2.135,2.135H21.923a2.135,2.135,0,0,1-2.135-2.135V67.054a2.135,2.135,0,0,1,2.135-2.135H68.033a2.135,2.135,0,0,1,2.135,2.135ZM74.706,37.79a4.5,4.5,0,0,0-4.184,6.175l-5.666,7.069.527-26.082a4.512,4.512,0,1,0-4.451-1.236L54.088,42.675,47.513,8.327a4.507,4.507,0,1,0-4.755.007L36.275,42.6,29.519,23.856a4.5,4.5,0,1,0-4.5,1.044l.52,26.154-5.556-6.9a4.5,4.5,0,1,0-4.1,2.649,4.531,4.531,0,0,0,.541-.036l4.211,10.269a2.144,2.144,0,0,0,1.975,1.334H67.658a2.144,2.144,0,0,0,1.968-1.318l4.332-10.312a4.508,4.508,0,1,0,.747-8.953Z" transform="translate(-11.377)"/>
</svg>
