<svg xmlns="http://www.w3.org/2000/svg" width="15.336" height="12" viewBox="0 0 15.336 12">
  <path id="Path_221" data-name="Path 221" d="M14.314,0a.956.956,0,0,1,.639.267.964.964,0,0,1,.383.8v10a1.042,1.042,0,0,1-.256.667,1.334,1.334,0,0,1-.767.267H1.022a1.334,1.334,0,0,1-.767-.267,1.47,1.47,0,0,1-.256-.8V1.067A1.042,1.042,0,0,1,.256.4.9.9,0,0,1,1.022,0ZM4.345,2.4A1.417,1.417,0,0,0,3.323,2,1.417,1.417,0,0,0,2.3,2.4a1.552,1.552,0,0,0-.383,1.067A1.552,1.552,0,0,0,2.3,4.533a1.417,1.417,0,0,0,1.022.4,1.417,1.417,0,0,0,1.022-.4,1.552,1.552,0,0,0,.383-1.067A1.552,1.552,0,0,0,4.345,2.4ZM13.419,10,9.585,4,6.134,8.667l-2.3-1.733L1.917,10Z" fill="#f8f8f8"/>
</svg>
