<svg xmlns="http://www.w3.org/2000/svg" width="55.27" height="26" viewBox="0 0 55.27 26">
  <g id="Group_59" data-name="Group 59" transform="translate(0 0.337)">
    <g id="Group_56" data-name="Group 56" transform="translate(0 0.492)">
      <path id="Path_51" data-name="Path 51" d="M2687.986,2216.2a1.963,1.963,0,1,1,2.206,1.525,3.535,3.535,0,0,1-3.117,1.466A3.888,3.888,0,0,1,2687.986,2216.2Zm-.737,4.185c.708,0,2.021-.973,3.73-.973a4.672,4.672,0,0,1,4.1,2.094,4.546,4.546,0,0,0-2.264,3.966,4.661,4.661,0,0,0,2.82,4.26s-1.971,5.55-4.635,5.55c-1.223,0-2.174-.824-3.463-.824-1.313,0-2.617.855-3.466.855-2.432,0-5.5-5.264-5.5-9.5,0-4.163,2.6-6.347,5.039-6.347,1.586,0,2.816.915,3.64.915Z" transform="translate(-2678.569 -2214.376)" fill="#fff"/>
    </g>
    <text id="iOS" transform="translate(37.27 20.663)" fill="#fff" font-size="22" font-family="Raleway-Regular, Raleway"><tspan x="-17.336" y="0">iOS</tspan></text>
  </g>
</svg>
