<svg xmlns="http://www.w3.org/2000/svg" width="15.506" height="21.504" viewBox="0 0 15.506 21.504">
  <path id="Exclusion_1" data-name="Exclusion 1" d="M19628.248,10102.843h0a22.34,22.34,0,0,1-3.373-3.653,19.044,19.044,0,0,1-2.32-4.043,13.235,13.235,0,0,1-1.055-5.05,6.753,6.753,0,1,1,13.506,0,13.187,13.187,0,0,1-1.057,5.05,19.043,19.043,0,0,1-2.322,4.043,22.4,22.4,0,0,1-3.375,3.653h0Zm0-16.192a3.442,3.442,0,1,0,3.445,3.444A3.448,3.448,0,0,0,19628.248,10086.65Z" transform="translate(-19620.498 -10082.339)" fill="#fff" stroke="#fff" stroke-linecap="round" stroke-linejoin="round" stroke-miterlimit="10" stroke-width="2"/>
</svg>
