<svg xmlns="http://www.w3.org/2000/svg" width="17.056" height="15.766" viewBox="0 0 17.056 15.766">
  <path id="Path_437" data-name="Path 437" d="M142.259,141.863h-.8a1.544,1.544,0,0,0-1.119.523,4.683,4.683,0,0,0-1.469,3.488,8.123,8.123,0,0,0,1.714,4.326c.21.279,2.9,4.637,7.168,6.313,3.545,1.393,4.267,1.116,5.036,1.046a4.238,4.238,0,0,0,2.833-1.988,3.486,3.486,0,0,0,.245-1.989c-.105-.174-.385-.279-.8-.488s-2.477-1.238-2.861-1.378-.664-.209-.944.21-1.1,1.385-1.349,1.664-.49.314-.909.105a11.6,11.6,0,0,1-3.361-2.084,12.859,12.859,0,0,1-2.359-2.941c-.245-.418-.026-.645.184-.854.189-.187.443-.443.653-.687a2.83,2.83,0,0,0,.409-.7.768.768,0,0,0-.035-.732c-.105-.209-.91-2.278-1.284-3.1h0C142.889,141.9,142.558,141.875,142.259,141.863Zm0,0" transform="translate(-138.867 -141.863)" fill="#fff"/>
</svg>
