<svg xmlns="http://www.w3.org/2000/svg" width="50.418" height="40.335" viewBox="0 0 50.418 40.335">
  <path id="FontAwsome_crown_" data-name="FontAwsome (crown)" d="M41.6,35.293H8.823a1.264,1.264,0,0,0-1.26,1.26v2.521a1.264,1.264,0,0,0,1.26,1.26H41.6a1.264,1.264,0,0,0,1.26-1.26V36.553A1.264,1.264,0,0,0,41.6,35.293Zm5.042-25.209a3.782,3.782,0,0,0-3.781,3.781,3.7,3.7,0,0,0,.347,1.56l-5.7,3.419a2.518,2.518,0,0,1-3.482-.914L27.6,6.7a3.781,3.781,0,1,0-4.774,0L16.4,17.93a2.519,2.519,0,0,1-3.482.914l-5.7-3.419a3.78,3.78,0,1,0-3.443,2.222,3.861,3.861,0,0,0,.607-.063l5.7,15.188H40.335l5.7-15.188a3.861,3.861,0,0,0,.607.063,3.781,3.781,0,0,0,0-7.563Z"/>
</svg>
