<svg xmlns="http://www.w3.org/2000/svg" width="8" height="8" viewBox="0 0 8 8">
  <path id="Path_148" data-name="Path 148" d="M.133,5.067C.067,4.933,0,4.867,0,4.733A.509.509,0,0,1,.133,4.4L4.467.067A.065.065,0,0,1,4.533,0H7.467A.509.509,0,0,1,7.8.133a.475.475,0,0,1,.2.4V3.467c0,.067,0,.067-.067.133L3.6,7.933A2.887,2.887,0,0,1,3.267,8a.509.509,0,0,1-.333-.133ZM5.733,1.2a.823.823,0,0,0-.267.533.757.757,0,0,0,.2.533.811.811,0,0,0,1.067,0,.757.757,0,0,0,.2-.533A.718.718,0,0,0,6.8,1.2a.811.811,0,0,0-1.067,0Z" fill="#fff"/>
</svg>
