<svg xmlns="http://www.w3.org/2000/svg" width="12" height="11" viewBox="0 0 12 11">
  <g id="Quote" transform="translate(12 11) rotate(180)">
    <path id="Path_19" data-name="Path 19" d="M2.213,2.724V4.8H0V3.146A3.791,3.791,0,0,1,.375,1.2,2.987,2.987,0,0,1,1.913,0l.525.714a1.923,1.923,0,0,0-.937.681,2.187,2.187,0,0,0-.338,1.33Zm3.6,0V4.8H3.6V3.146A3.713,3.713,0,0,1,3.975,1.2,2.987,2.987,0,0,1,5.513,0L6,.714a1.923,1.923,0,0,0-.937.681,2.878,2.878,0,0,0-.337,1.33Z" transform="translate(3 6.001)" fill="#717171"/>
    <rect id="Rectangle_1451" data-name="Rectangle 1451" width="12" height="11" fill="none"/>
  </g>
</svg>
