<svg xmlns="http://www.w3.org/2000/svg" width="50.559" height="47.515" viewBox="0 0 50.559 47.515">
  <path id="Trazado_578" data-name="Trazado 578" d="M-422.9-57.337a1.554,1.554,0,0,1-1.554,1.554h-28.806a1.554,1.554,0,0,1-1.554-1.554v-3.316a1.554,1.554,0,0,1,1.554-1.554h28.806a1.554,1.554,0,0,1,1.554,1.554Zm-24.71-39.86a3.054,3.054,0,0,0,3.051-3.051,3.054,3.054,0,0,0-3.051-3.051,3.054,3.054,0,0,0-3.051,3.051A3.054,3.054,0,0,0-447.614-97.2Zm17.76,0a3.054,3.054,0,0,0,3.051-3.051,3.054,3.054,0,0,0-3.051-3.051,3.054,3.054,0,0,0-3.051,3.051A3.054,3.054,0,0,0-429.854-97.2Zm13.336,1.81A3.08,3.08,0,0,0-419.6-92.31a3.08,3.08,0,0,0,3.077,3.077,3.08,3.08,0,0,0,3.077-3.077A3.081,3.081,0,0,0-416.518-95.387Zm-41.381,2.87a3.054,3.054,0,0,0-3.051-3.051A3.054,3.054,0,0,0-464-92.517a3.054,3.054,0,0,0,3.051,3.051A3.054,3.054,0,0,0-457.9-92.517Zm41.725.2a1.555,1.555,0,0,0-2,.521l-8.852,12.265-2.082-18.845a1.554,1.554,0,0,0-1.2-1.507,1.555,1.555,0,0,0-1.744.825l-6.762,17.7-6.761-17.7a1.554,1.554,0,0,0-1.744-.825,1.554,1.554,0,0,0-1.2,1.507l-2.082,18.848L-459.461-91.8a1.554,1.554,0,0,0-2-.521,1.554,1.554,0,0,0-.748,1.928l8.258,23.442a1.554,1.554,0,0,0,1.456,1.01h27.355a1.554,1.554,0,0,0,1.456-1.01l8.258-23.441A1.555,1.555,0,0,0-416.174-92.316Z" transform="translate(464 103.298)"/>
</svg>
