<svg id="whatsapp" xmlns="http://www.w3.org/2000/svg" width="24.101" height="24.125" viewBox="0 0 24.101 24.125">
  <path id="Path_436" data-name="Path 436" d="M20.54,3.5a12.057,12.057,0,0,0-16.992,0A11.835,11.835,0,0,0,0,11.951v.006A11.9,11.9,0,0,0,1.468,17.6L.033,24.125l6.6-1.5a12.075,12.075,0,0,0,5.415,1.287h0a12.018,12.018,0,0,0,8.5-3.5A11.827,11.827,0,0,0,20.54,3.5ZM12.05,22.028h0A10.177,10.177,0,0,1,7.208,20.8L6.9,20.632l-4.387,1,.953-4.33-.184-.317a10.065,10.065,0,0,1-1.4-5.028A10.164,10.164,0,0,1,19.211,4.837a10.009,10.009,0,0,1,3.007,7.122A10.133,10.133,0,0,1,12.05,22.028Zm0,0" transform="translate(0)" fill="#fff"/>
  <path id="Path_437" data-name="Path 437" d="M141.095,141.863h-.528a1.014,1.014,0,0,0-.735.344,3.076,3.076,0,0,0-.965,2.291,5.336,5.336,0,0,0,1.125,2.841,11.3,11.3,0,0,0,4.709,4.147c2.328.915,2.8.733,3.308.687a2.784,2.784,0,0,0,1.861-1.306,2.29,2.29,0,0,0,.161-1.306c-.069-.114-.253-.183-.528-.32s-1.627-.813-1.879-.905-.436-.137-.62.138-.725.91-.886,1.093-.322.207-.6.069a7.621,7.621,0,0,1-2.207-1.369,8.446,8.446,0,0,1-1.549-1.932c-.161-.275-.017-.424.121-.561s.291-.291.429-.451a1.859,1.859,0,0,0,.269-.458.5.5,0,0,0-.023-.481c-.069-.137-.6-1.5-.843-2.039h0C141.509,141.887,141.291,141.871,141.095,141.863Zm0,0" transform="translate(-132.324 -135.179)" fill="#fff"/>
</svg>
