<svg id="Logo" xmlns="http://www.w3.org/2000/svg" width="117.686" height="26.459" viewBox="0 0 117.686 26.459">
  <g id="Group_1" data-name="Group 1">
    <path id="Path_1" data-name="Path 1" d="M310,43.536a13.259,13.259,0,0,1,24.776-6.265H331.84a10.8,10.8,0,0,0-8.485-4.082A10.491,10.491,0,1,0,332.306,49.3V43.536h2.613V56.461h-2.613V53.346A13.36,13.36,0,0,1,310,43.536Z" transform="translate(-310 -30.575)"/>
    <path id="Path_2" data-name="Path 2" d="M366.715,47.4V31.072h2.614V47.4c0,4.511,2.685,7.2,7.232,7.2,4.511,0,7.161-2.685,7.161-7.2V31.072h2.613V47.4c0,6.158-3.616,9.81-9.774,9.81C370.367,57.209,366.715,53.557,366.715,47.4Z" transform="translate(-329.98 -30.75)"/>
    <path id="Path_3" data-name="Path 3" d="M416.907,31.072h2.613V54.13H431.3v2.507H416.907Z" transform="translate(-347.663 -30.75)"/>
    <path id="Path_4" data-name="Path 4" d="M460.333,44l-1.079,2.465-4.583,10.168h-2.829l11.493-25.564h2.828l11.493,25.564h-2.828l-4.583-10.168-1.11-2.507-4.368-9.738-4.4,9.738" transform="translate(-359.97 -30.75)"/>
  </g>
</svg>
